<?xml version="1.0"?>

<svg version="1.1" id="Layer_1" xmlns="http://www.w3.org/2000/svg" xmlns:xlink="http://www.w3.org/1999/xlink" x="0px" y="0px" viewBox="0 0 453.54 130.39" style="enable-background:new 0 0 453.54 130.39;" xml:space="preserve">

<g>
&#x9;<path class="st0" d="M422.81,70.97c-1.99-2.85-4.3-5.4-6.7-7.9c-3.7-3.86-7.69-7.49-10.12-12.39c-1.59-4.49-4.09-8.3-7.84-11.36&#xA;&#x9;&#x9;c-1.62-1.32-3.01-1.81-4.82-0.76c1.43-2.1,1.09-4.17-0.08-6.24c-0.23-0.41-0.47-0.83-0.62-1.28c-1.64-4.86-5.12-9.08-5.11-14.52&#xA;&#x9;&#x9;c0.11-1.86-0.25-3.65-0.78-6c-0.82,1.3-1.53,2.02-1.78,2.88c-1.03,3.42-3.24,4.86-6.75,4.36c-1.86-0.33-3.86-0.21-5.37,0.64&#xA;&#x9;&#x9;c-3.41,1.92-6.81,2.28-10.48,1.21c-0.65-0.19-1.3-0.13-1.79,0.54c-1.65,2.26-0.84,6.96,1.54,8.57c2.34,1.59,5.12,2.2,7.67,3.32&#xA;&#x9;&#x9;c2.26,0.99,3.77,2.36,4.02,5.1c0.21,2.4,0.39,4.79,0.56,7.19c0.11,1.5-0.16,2.11-1.93,2.34c-2.57,0.33-1.96,2.87-2.31,4.62&#xA;&#x9;&#x9;c-0.12,0.62-0.48,1.9,0.63,1.84c1.49-0.08,1.53-1.78,2.21-2.77c0.07-0.1,0.32-0.08,0.53-0.12c-0.07,4.57,0.48,9.02,2.44,13.21&#xA;&#x9;&#x9;c0,0,0,0,0,0c2.73,7.78,6.79,14.98,9.82,22.63c1.74,5.93,3.14,11.91,2.8,18.17c-0.03,0.57-0.37,1.41,0.67,1.62&#xA;&#x9;&#x9;c2.15,0.43,5.04-2.17,4.96-4.44c-0.22-6.45-0.56-12.89-1.29-19.31c-0.07-0.6-1.4-2.41,1-2c7.72,6.85,6.23,14.83,2.11,23.47&#xA;&#x9;&#x9;c3.25-1.32,5.68-2.39,7.73-4.16v0c9.42-5.84,15.66-14.25,19.74-24.4C424.09,73.55,423.7,72.23,422.81,70.97z"></path>
&#x9;<path class="st0" d="M385.55,101.07c-1.97-17.82-10.88-32.72-20.07-47.5c-2.81-5.92-6.95-11.09-9.3-17.42&#xA;&#x9;&#x9;c-1.38,1.23-2.38,2.12-3.38,3l0,0c-4.52,0.2-7.49,3.12-10.5,5.97c-0.7,0.66-0.25,1.43-0.06,2.16c0.76,2.87,2.91,4.47,5.39,5.67&#xA;&#x9;&#x9;c2.18,1.05,3.05,2.62,2.99,5.04c-0.06,2.62-0.42,5.17-0.9,7.73c-0.79,4.22-0.69,8.42,0.24,12.61c0.3,1.35,0.78,2.58,2.18,3.19&#xA;&#x9;&#x9;c0,0,0,0,0,0c4.08,3.22,8.65,5.82,12.19,9.72c0,0,0,0,0,0c3.64,4.22,6.53,8.81,7.2,14.5c0.11,0.95,0.45,1.61,1.6,1.62&#xA;&#x9;&#x9;c3.37,0.02,6.74,0.31,10.11-0.21c1.77-0.27,2.55-1.18,2.5-2.9C385.72,103.18,385.67,102.12,385.55,101.07z"></path>
&#x9;<linearGradient id="SVGID_1_" gradientUnits="userSpaceOnUse" x1="323.3164" y1="80.7464" x2="323.3176" y2="80.7459">
&#x9;&#x9;<stop offset="0" style="stop-color:#5E7832"></stop>
&#x9;&#x9;<stop offset="1" style="stop-color:#236142"></stop>
&#x9;</linearGradient>
&#x9;<polygon class="st1" points="323.32,80.75 323.32,80.75 323.32,80.75 &#x9;"></polygon>
&#x9;<linearGradient id="SVGID_2_" gradientUnits="userSpaceOnUse" x1="333.537" y1="84.3579" x2="444.7475" y2="43.5508">
&#x9;&#x9;<stop offset="0" style="stop-color:#6CB82D"></stop>
&#x9;&#x9;<stop offset="1" style="stop-color:#236142"></stop>
&#x9;</linearGradient>
&#x9;<path class="st2" d="M385.76,0.47c-7.55,0-14.78,1.34-21.49,3.8c3.85-0.86,7.85-1.31,11.96-1.31c30.01,0,54.34,24.21,54.34,54.06&#xA;&#x9;&#x9;c0,29.86-24.33,54.06-54.34,54.06c-2.38,0-4.72-0.16-7.02-0.46c-1.07-4.64-1.74-10.31-4.64-13.93&#xA;&#x9;&#x9;C359.8,89.49,351.26,85.85,345,79.9c-4.99-6.51-8.42-4.69-6.33,2.81c2.08,5.04,6.2,7.59,10.2,11.4&#xA;&#x9;&#x9;c-12.28-2.28-15.09-20.65-17.84-31.72c-0.43-2.14-1.25-4.33-2.72-6.03c-8.52-9.1-6.72,12.88-5,24.38c0.06-0.13,0.12-0.25,0.18-0.37&#xA;&#x9;&#x9;c-0.03,0.14-0.09,0.26-0.18,0.37c0.5,3.32,0.99,5.76,1.23,6.35c5.25,14.39,14.82,25.25,27.08,32.7&#xA;&#x9;&#x9;c9.86,6.41,21.57,10.13,34.13,10.13c35.08,0,63.52-28.98,63.52-64.73C449.28,29.45,420.84,0.47,385.76,0.47z"></path>
</g>
<g>
&#x9;<path class="st3" d="M10.4,28.68h16.24v2.45h3.75V28.3h5.11v15.26h-5.11v-3.71h-3.75v2.83H13.52c-1.12,0-1.92-0.26-2.4-0.77&#xA;&#x9;&#x9;c-0.48-0.51-0.72-1.29-0.72-2.34V28.68z M17.65,58.05c-1.12,0-1.92-0.26-2.4-0.77c-0.48-0.51-0.72-1.3-0.72-2.35v-5.11h15.85v-2&#xA;&#x9;&#x9;H14.53v-3.12H35.5v8.22H19.64v2H36.2v3.12H17.65z M15.48,31.8v7.77h6.05V31.8H15.48z M26.64,36.73h3.75v-2.48h-3.75V36.73z"></path>
&#x9;<path class="st3" d="M38.96,42.33h11.69v-3.5h5.11v3.5h11.65v3.12H38.96V42.33z M42.43,28.68h21.56v3.12h-8.05&#xA;&#x9;&#x9;c0.21,0.7,0.58,1.36,1.1,1.98s1.18,1.17,1.98,1.64c0.79,0.48,1.69,0.86,2.69,1.16c1,0.29,2.09,0.47,3.25,0.54l-1.08,2.87&#xA;&#x9;&#x9;c-2.38-0.07-4.5-0.48-6.37-1.24c-1.87-0.76-3.3-1.79-4.31-3.1c-1.03,1.31-2.47,2.34-4.32,3.1c-1.86,0.76-3.97,1.17-6.35,1.24&#xA;&#x9;&#x9;l-1.08-2.87c1.14-0.07,2.22-0.25,3.24-0.54c1.02-0.29,1.91-0.68,2.69-1.16c0.78-0.48,1.44-1.03,1.98-1.64&#xA;&#x9;&#x9;c0.54-0.62,0.91-1.28,1.12-1.98h-8.05V28.68z M44.11,53.04c0-1.87,0.78-3.34,2.33-4.43c1.55-1.08,3.81-1.63,6.77-1.63&#xA;&#x9;&#x9;c2.96,0,5.22,0.54,6.77,1.63s2.33,2.56,2.33,4.43s-0.78,3.34-2.33,4.43s-3.81,1.63-6.77,1.63c-2.96,0-5.22-0.54-6.77-1.63&#xA;&#x9;&#x9;C44.88,56.38,44.11,54.91,44.11,53.04z M49.22,53.04c0,0.91,0.33,1.63,1,2.15s1.66,0.79,2.99,0.79s2.33-0.26,2.99-0.79&#xA;&#x9;&#x9;s1-1.24,1-2.15s-0.33-1.63-1-2.15c-0.67-0.53-1.66-0.79-2.99-0.79s-2.33,0.26-2.99,0.79C49.55,51.41,49.22,52.13,49.22,53.04z"></path>
&#x9;<path class="st3" d="M76.87,57.87v-8.92h-7.31v-3.12h20.09v3.12h-7.67v8.92H76.87z M70.85,36.03c0-1.17,0.2-2.22,0.61-3.17&#xA;&#x9;&#x9;c0.41-0.95,0.99-1.75,1.73-2.43c0.75-0.68,1.65-1.2,2.7-1.56c1.05-0.36,2.23-0.54,3.53-0.54c1.28,0,2.46,0.18,3.52,0.54&#xA;&#x9;&#x9;c1.06,0.36,1.97,0.88,2.71,1.56c0.75,0.68,1.32,1.49,1.73,2.43c0.41,0.95,0.61,2,0.61,3.17s-0.2,2.22-0.61,3.17&#xA;&#x9;&#x9;c-0.41,0.95-0.99,1.76-1.73,2.43c-0.75,0.68-1.65,1.2-2.71,1.56c-1.06,0.36-2.23,0.54-3.52,0.54c-1.31,0-2.48-0.18-3.53-0.54&#xA;&#x9;&#x9;c-1.05-0.36-1.95-0.88-2.7-1.56c-0.75-0.68-1.32-1.49-1.73-2.43C71.05,38.25,70.85,37.2,70.85,36.03z M75.92,36.03&#xA;&#x9;&#x9;c0,1.47,0.31,2.6,0.93,3.38c0.62,0.78,1.48,1.18,2.57,1.21s1.95-0.37,2.57-1.17c0.62-0.8,0.93-1.94,0.93-3.41&#xA;&#x9;&#x9;c0-1.47-0.31-2.61-0.93-3.41c-0.62-0.8-1.48-1.2-2.57-1.17s-1.95,0.43-2.57,1.21C76.23,33.44,75.92,34.56,75.92,36.03z M90.94,28.3&#xA;&#x9;&#x9;h5.11v29.75h-5.11V28.3z"></path>
&#x9;<path class="st3" d="M100,48.98c3.64-1.45,6.35-3.4,8.12-5.86c1.77-2.46,2.66-5.55,2.66-9.26v-1.72h-9.73v-3.11h14.84v3.96&#xA;&#x9;&#x9;c0,2.5-0.33,4.74-0.98,6.72s-1.59,3.74-2.8,5.27c-1.21,1.53-2.68,2.84-4.41,3.94c-1.73,1.1-3.66,2.01-5.81,2.73L100,48.98z&#xA;&#x9;&#x9; M119.99,28.3h5.11v29.75h-5.11V28.3z"></path>
&#x9;<path class="st3" d="M128.56,42.16h11.69v-2.42h-4.51c-1.12,0-1.92-0.26-2.4-0.77c-0.48-0.51-0.72-1.29-0.72-2.34v-7.95h20.37v3.12&#xA;&#x9;&#x9;h-15.26v4.83h15.61v3.12h-7.98v2.42h11.65v3.11h-28.46V42.16z M133.71,53.04c0-1.87,0.78-3.34,2.33-4.43&#xA;&#x9;&#x9;c1.55-1.08,3.81-1.63,6.77-1.63c2.96,0,5.22,0.54,6.77,1.63s2.33,2.56,2.33,4.43s-0.78,3.34-2.33,4.43s-3.81,1.63-6.77,1.63&#xA;&#x9;&#x9;c-2.96,0-5.22-0.54-6.77-1.63C134.48,56.38,133.71,54.91,133.71,53.04z M138.82,53.04c0,0.91,0.33,1.63,1,2.15s1.66,0.79,2.99,0.79&#xA;&#x9;&#x9;s2.33-0.26,2.99-0.79s1-1.24,1-2.15s-0.33-1.63-1-2.15c-0.67-0.53-1.66-0.79-2.99-0.79s-2.33,0.26-2.99,0.79&#xA;&#x9;&#x9;C139.15,51.41,138.82,52.13,138.82,53.04z"></path>
&#x9;<path class="st3" d="M158.31,40.41h28.46v3.11h-11.65v1.89h7.81v7.8h-15.61v1.92h16.31v2.91h-18.3c-1.12,0-1.92-0.26-2.4-0.77&#xA;&#x9;&#x9;c-0.48-0.51-0.72-1.3-0.72-2.35v-4.62h15.61v-1.99H162.2v-2.91h7.8v-1.89h-11.69V40.41z M162.37,28.68h20.37v10.01h-17.25&#xA;&#x9;&#x9;c-1.12,0-1.92-0.26-2.4-0.77c-0.48-0.51-0.72-1.29-0.72-2.34V28.68z M167.48,31.8v3.78h10.15V31.8H167.48z"></path>
&#x9;<path class="st3" d="M204.86,44.89v4.45h11.66v3.12h-28.46v-3.12h11.69v-4.45h-4.52c-1.12,0-1.92-0.26-2.4-0.77&#xA;&#x9;&#x9;s-0.72-1.29-0.72-2.35V28.85h5.11v5.08h10.15v-5.08h5.11v16.03H204.86z M207.38,41.77v-4.72h-10.15v4.72H207.38z"></path>
&#x9;<path class="st3" d="M222.61,40.97c0-0.89,0.2-1.71,0.59-2.47c0.4-0.76,0.99-1.41,1.79-1.96c0.79-0.55,1.78-0.97,2.96-1.28&#xA;&#x9;&#x9;c1.18-0.3,2.55-0.46,4.11-0.46c1.56,0,2.93,0.15,4.11,0.46c1.18,0.3,2.16,0.73,2.96,1.28c0.79,0.55,1.39,1.2,1.79,1.96&#xA;&#x9;&#x9;c0.4,0.76,0.59,1.58,0.59,2.47c0,1.54-0.58,2.85-1.73,3.92c-1.16,1.07-2.88,1.76-5.16,2.07v2.73h11.66v3.12h-28.46v-3.12h11.69&#xA;&#x9;&#x9;v-2.73c-2.29-0.3-4.01-0.99-5.16-2.07C223.18,43.81,222.61,42.51,222.61,40.97z M220.58,30.08h8.93v-3.15h5.11v3.15h8.93v3.12&#xA;&#x9;&#x9;h-22.96V30.08z M227.72,40.97c0,0.91,0.37,1.65,1.12,2.21c0.75,0.56,1.82,0.84,3.22,0.84s2.47-0.28,3.22-0.84s1.12-1.29,1.12-2.21&#xA;&#x9;&#x9;s-0.37-1.64-1.12-2.21c-0.75-0.56-1.82-0.84-3.22-0.84s-2.47,0.28-3.22,0.84C228.09,39.32,227.72,40.06,227.72,40.97z"></path>
&#x9;<path class="st3" d="M268.04,44.08h-15.47c-1.12,0-1.92-0.26-2.4-0.77c-0.48-0.51-0.72-1.29-0.72-2.34V28.68h14.7v3.12h-9.59v9.17&#xA;&#x9;&#x9;h13.48V28.3h5.11v8.79h4.06v3.12h-4.06v10.88h-5.11V44.08z M256,58.05c-1.12,0-1.92-0.26-2.4-0.77c-0.48-0.51-0.72-1.3-0.72-2.35&#xA;&#x9;&#x9;v-7.46h5.11v7.46h15.86v3.12H256z"></path>
&#x9;<path class="st3" d="M289.21,33.55v2c0,1.54,0.04,2.91,0.11,4.09c0.07,1.19,0.29,2.27,0.65,3.24c0.36,0.97,0.92,1.87,1.68,2.7&#xA;&#x9;&#x9;c0.76,0.83,1.81,1.65,3.17,2.47l-2.31,2.87c-1.28-0.65-2.43-1.46-3.43-2.43c-1-0.97-1.81-2.05-2.42-3.24&#xA;&#x9;&#x9;c-0.63,1.24-1.45,2.39-2.47,3.45s-2.14,1.92-3.38,2.57l-2.31-2.87c1.33-0.82,2.37-1.66,3.12-2.52c0.75-0.86,1.3-1.8,1.66-2.82&#xA;&#x9;&#x9;c0.36-1.02,0.59-2.14,0.68-3.36c0.09-1.22,0.14-2.61,0.14-4.15v-2h-4.55v-3.12h4.55V26.9h5.11v3.54h4.55v3.12H289.21z M295.51,37.5&#xA;&#x9;&#x9;V28.3h4.76v29.58h-4.76V40.62h-4.34V37.5H295.51z M301.99,28.3h4.76v29.75h-4.76V28.3z"></path>
&#x9;<path class="st4" d="M203.74,106.42h-23.96c-1.7,0-2.91-0.39-3.63-1.17c-0.72-0.78-1.09-1.96-1.09-3.55V87.72h15.26v-8.53h-15.26&#xA;&#x9;&#x9;v-4.72h23v17.97h-15.26v9.28h20.94V73.35h7.74v16.06h6.15v4.72h-6.15v24.27h-7.74V106.42z"></path>
&#x9;<path class="st4" d="M221.13,90.53c0-5.62,1.21-9.79,3.63-12.51c2.42-2.72,5.71-4.08,9.88-4.08c4.17,0,7.46,1.36,9.88,4.08&#xA;&#x9;&#x9;c2.42,2.72,3.63,6.89,3.63,12.51c0,5.62-1.21,9.79-3.63,12.51s-5.72,4.08-9.88,4.08c-4.17,0-7.46-1.36-9.88-4.08&#xA;&#x9;&#x9;C222.33,100.31,221.13,96.14,221.13,90.53z M228.6,90.53c0,2.12,0.14,3.9,0.42,5.35c0.28,1.45,0.69,2.62,1.22,3.52&#xA;&#x9;&#x9;s1.17,1.55,1.91,1.93c0.74,0.39,1.57,0.58,2.49,0.58c0.92,0,1.75-0.19,2.49-0.58c0.74-0.39,1.38-1.03,1.91-1.93&#xA;&#x9;&#x9;s0.94-2.08,1.22-3.52c0.28-1.45,0.42-3.23,0.42-5.35c0-2.12-0.14-3.9-0.42-5.35c-0.28-1.45-0.69-2.62-1.22-3.52&#xA;&#x9;&#x9;s-1.17-1.54-1.91-1.93c-0.74-0.39-1.57-0.58-2.49-0.58c-0.92,0-1.75,0.19-2.49,0.58c-0.74,0.39-1.38,1.03-1.91,1.93&#xA;&#x9;&#x9;s-0.94,2.08-1.22,3.52C228.74,86.62,228.6,88.41,228.6,90.53z M252.5,73.35h7.74v45.05h-7.74V73.35z"></path>
&#x9;<path class="st4" d="M265.49,105.21h43.09v4.72h-43.09V105.21z M270.25,74.47h33.55v4.72h-5.04v14.58h5.56v4.72h-34.61v-4.72h5.62&#xA;&#x9;&#x9;V79.18h-5.09V74.47z M283.08,93.76h7.95V79.18h-7.95V93.76z"></path>
</g>
</svg>