<svg id="Layer_1" data-name="Layer 1" xmlns="http://www.w3.org/2000/svg" xmlns:xlink="http://www.w3.org/1999/xlink" viewBox="0 0 68 66"><defs><linearGradient id="linear-gradient" x1="4.44" y1="3.44" x2="63.56" y2="62.56" gradientUnits="userSpaceOnUse"><stop offset="0" stop-color="#8a54ea"></stop><stop offset="1" stop-color="#aa45e3"></stop></linearGradient></defs><title>Artboard 2</title><rect class="cls-1" x="1" y="1" width="66" height="64" rx="10"></rect><path class="cls-2" d="M52.64,35.09H42.73V31.2a3.16,3.16,0,0,0-.42-1.61.65.65,0,0,0,.34-1L35.19,17.34v-1.8l4.61-1.9a.65.65,0,0,0,0-1.21l-5.08-2.09a.63.63,0,0,0-.61.06.65.65,0,0,0-.29.54v4.19a.59.59,0,0,0,.07.29v2L26.46,28.61a.65.65,0,0,0,0,.67.63.63,0,0,0,.37.31,3.16,3.16,0,0,0-.42,1.61v3.89h-11a2.48,2.48,0,0,0-2.47,2.48V49.24a2.48,2.48,0,0,0,2.47,2.47H52.64a2.48,2.48,0,0,0,2.47-2.47V37.57A2.48,2.48,0,0,0,52.64,35.09ZM35.12,11.91,37.84,13l-2.72,1.12Zm-.56,6.83,6.34,9.58H28.22Zm1.52,31.57H32.44V43.07h3.64Zm17.73-1.07a1.18,1.18,0,0,1-1.17,1.17H37.38v-8a.65.65,0,0,0-.65-.65H31.78a.65.65,0,0,0-.65.65v8H15.36a1.18,1.18,0,0,1-1.17-1.17V37.57a1.17,1.17,0,0,1,1.17-1.17H27a.68.68,0,0,0,.48-.21.67.67,0,0,0,.17-.49c0-.05,0-.11,0-.16V31.2c0-.86.54-1.58,1.17-1.58H40.26c.63,0,1.17.72,1.17,1.58v4.34a.92.92,0,0,1,0,.16.67.67,0,0,0,.65.7H52.64a1.17,1.17,0,0,1,1.17,1.17Z"></path><path class="cls-2" d="M33.41,32.36H30.15a.32.32,0,0,0-.32.32v3.26a.32.32,0,0,0,.32.33h3.26a.33.33,0,0,0,.33-.33V32.68A.32.32,0,0,0,33.41,32.36Zm-.32,3.26H30.48V33h2.61Z"></path><path class="cls-2" d="M38.64,32.36H35.38a.32.32,0,0,0-.33.32v3.26a.33.33,0,0,0,.33.33h3.26a.33.33,0,0,0,.33-.33V32.68A.32.32,0,0,0,38.64,32.36Zm-.33,3.26h-2.6V33h2.6Z"></path><path class="cls-2" d="M21.19,41.57H17.93a.32.32,0,0,0-.33.32v3.26a.33.33,0,0,0,.33.33h3.26a.32.32,0,0,0,.32-.33V41.89A.32.32,0,0,0,21.19,41.57Zm-.33,3.26H18.25V42.22h2.61Z"></path><path class="cls-2" d="M26.41,41.57H23.15a.32.32,0,0,0-.32.32v3.26a.32.32,0,0,0,.32.33h3.26a.33.33,0,0,0,.33-.33V41.89A.32.32,0,0,0,26.41,41.57Zm-.32,3.26H23.48V42.22h2.61Z"></path><path class="cls-2" d="M45.43,41.57H42.17a.32.32,0,0,0-.33.32v3.26a.33.33,0,0,0,.33.33h3.26a.33.33,0,0,0,.33-.33V41.89A.32.32,0,0,0,45.43,41.57Zm-.32,3.26H42.5V42.22h2.61Z"></path><path class="cls-2" d="M50.66,41.57H47.4a.32.32,0,0,0-.33.32v3.26a.33.33,0,0,0,.33.33h3.26a.32.32,0,0,0,.32-.33V41.89A.32.32,0,0,0,50.66,41.57Zm-.33,3.26H47.72V42.22h2.61Z"></path></svg>