<svg id="Layer_1" data-name="Layer 1" xmlns="http://www.w3.org/2000/svg" xmlns:xlink="http://www.w3.org/1999/xlink" viewBox="0 0 68 66"><defs><linearGradient id="linear-gradient" x1="4.44" y1="3.44" x2="63.56" y2="62.56" gradientUnits="userSpaceOnUse"><stop offset="0" stop-color="#8a54ea"></stop><stop offset="1" stop-color="#aa45e3"></stop></linearGradient></defs><title>Artboard 4</title><rect class="cls-1" x="1" y="1" width="66" height="64" rx="10"></rect><path class="cls-2" d="M36.14,18H14.89a.67.67,0,0,0-.63.68V44.62a.67.67,0,0,0,.63.69h15.7v3.95c0,.48.54.91.94.59l1.33-1.08,1-.8.31-.21.17.13a9.86,9.86,0,0,0,.94.77l1.45,1.19a.46.46,0,0,0,.7-.06.65.65,0,0,0,.24-.53V45.31H53.11a.56.56,0,0,0,.43-.18l0,0h0a.67.67,0,0,0,.17-.47V18.7a.67.67,0,0,0-.63-.68h-17ZM30.59,43.94H15.51V19.39H30.59Zm5.8,4-2-1.6a.56.56,0,0,0-.63,0l-2,1.61V19.39h4.55Zm1.25-28.5H52.49V43.94H37.64Z"></path><path class="cls-2" d="M18.36,25.83h8.86c.53,0,.53-.91,0-.91H18.36C17.82,24.92,17.82,25.83,18.36,25.83Z"></path><path class="cls-2" d="M18.36,29.68h8.86c.53,0,.53-.92,0-.92H18.36C17.82,28.76,17.82,29.68,18.36,29.68Z"></path><path class="cls-2" d="M18.36,33.52h8.86c.53,0,.53-.91,0-.91H18.36C17.82,32.61,17.82,33.52,18.36,33.52Z"></path><path class="cls-2" d="M18.36,37.37h8.86c.53,0,.53-.91,0-.91H18.36C17.82,36.46,17.82,37.37,18.36,37.37Z"></path><path class="cls-2" d="M49.69,24.92H40.83c-.54,0-.54.91,0,.91h8.86C50.22,25.83,50.22,24.92,49.69,24.92Z"></path><path class="cls-2" d="M49.69,28.76H40.83c-.54,0-.54.92,0,.92h8.86C50.22,29.68,50.22,28.76,49.69,28.76Z"></path><path class="cls-2" d="M49.69,32.61H40.83c-.54,0-.54.91,0,.91h8.86C50.22,33.52,50.22,32.61,49.69,32.61Z"></path><path class="cls-2" d="M49.69,36.46H40.83c-.54,0-.54.91,0,.91h8.86C50.22,37.37,50.22,36.46,49.69,36.46Z"></path></svg>