<svg id="Layer_1" data-name="Layer 1" xmlns="http://www.w3.org/2000/svg" xmlns:xlink="http://www.w3.org/1999/xlink" viewBox="0 0 68 66"><defs><linearGradient id="linear-gradient" x1="4.44" y1="3.44" x2="63.56" y2="62.56" gradientUnits="userSpaceOnUse"><stop offset="0" stop-color="#8a54ea"></stop><stop offset="1" stop-color="#aa45e3"></stop></linearGradient></defs><title>Artboard 5</title><rect class="cls-1" x="1" y="1" width="66" height="64" rx="10"></rect><path class="cls-2" d="M53.79,43.05a.92.92,0,0,0,1.08-.73l.78-4.08a.94.94,0,0,0-.15-.69.9.9,0,0,0-.59-.39l-1.57-.3a11,11,0,0,0-.53-2.53l1.33-.91a.92.92,0,0,0,.24-1.28L52.05,28.7a.91.91,0,0,0-.59-.38.89.89,0,0,0-.69.14l-1.33.9a10.89,10.89,0,0,0-2.16-1.42l.3-1.58a.94.94,0,0,0-.74-1.08l-4.08-.78a.94.94,0,0,0-.69.15,1,1,0,0,0-.39.59l-.3,1.57a11,11,0,0,0-2.53.53L37.94,26a.91.91,0,0,0-1.28-.24L33.22,28.1a.91.91,0,0,0-.38.59.92.92,0,0,0,.14.7l.9,1.32a11.11,11.11,0,0,0-1.42,2.17l-1.58-.3a.89.89,0,0,0-.69.14,1,1,0,0,0-.39.59L29,37.39a.92.92,0,0,0,.73,1.08l1.58.3a10.94,10.94,0,0,0,.52,2.53l-1.33.91a.93.93,0,0,0-.24,1.28l2.33,3.44a.92.92,0,0,0,1.29.24l1.33-.9a10.34,10.34,0,0,0,2.16,1.42l-.3,1.58a.92.92,0,0,0,.73,1.08l4.08.78h.18a.92.92,0,0,0,.9-.75l.3-1.57a11,11,0,0,0,2.54-.53l.9,1.33a1,1,0,0,0,.59.39.94.94,0,0,0,.69-.15l3.44-2.33a.93.93,0,0,0,.24-1.29l-.9-1.32a10.67,10.67,0,0,0,1.42-2.17Zm-3-1.69A9,9,0,0,1,49,44.19a.91.91,0,0,0-.1,1.16l.79,1.17-1.91,1.3L47,46.65a.92.92,0,0,0-1.12-.33,9,9,0,0,1-3.32.69.94.94,0,0,0-.9.75l-.26,1.38-2.27-.43.27-1.38a.93.93,0,0,0-.55-1A9.1,9.1,0,0,1,36,44.43a.94.94,0,0,0-1.16-.1l-1.17.79-1.29-1.9,1.16-.79a.93.93,0,0,0,.33-1.12A9.31,9.31,0,0,1,33.14,38a.92.92,0,0,0-.75-.89L31,36.83l.44-2.27,1.38.26a.91.91,0,0,0,1-.55,9.06,9.06,0,0,1,1.87-2.83.94.94,0,0,0,.1-1.16L35,29.11l1.91-1.3L37.73,29a.91.91,0,0,0,1.11.33,9.14,9.14,0,0,1,3.33-.69.92.92,0,0,0,.89-.75l.26-1.38,2.27.43-.26,1.38a.91.91,0,0,0,.55,1,9.22,9.22,0,0,1,2.84,1.87.93.93,0,0,0,1.16.1L51,30.5l1.3,1.91-1.17.79a.93.93,0,0,0-.33,1.12,9.06,9.06,0,0,1,.69,3.33.93.93,0,0,0,.75.89l1.38.26-.43,2.27-1.38-.27A.93.93,0,0,0,50.82,41.36Z"></path><path class="cls-2" d="M43.58,31.3a6.64,6.64,0,0,0-2.49,13h0a6.64,6.64,0,1,0,2.49-13ZM47,38.71a4.78,4.78,0,0,1-5.6,3.81h0a4.79,4.79,0,0,1-1.8-8.67A4.84,4.84,0,0,1,42.33,33a4.58,4.58,0,0,1,.9.09A4.79,4.79,0,0,1,47,38.71Z"></path><path class="cls-2" d="M12.79,27.82a.68.68,0,0,0,.78.59l1.2-.17a7.82,7.82,0,0,0,1,1.67l-.72,1a.68.68,0,0,0,.13,1l2.5,1.87a.7.7,0,0,0,1-.14l.72-1a8.24,8.24,0,0,0,1.88.48l.18,1.19a.65.65,0,0,0,.27.46.68.68,0,0,0,.41.14h.1l3.09-.44a.71.71,0,0,0,.59-.79l-.17-1.19a9.07,9.07,0,0,0,1.67-1l1,.72a.69.69,0,0,0,1-.14l1.87-2.5a.69.69,0,0,0-.14-1l-1-.72A8.74,8.74,0,0,0,30.58,26l1.19-.17a.71.71,0,0,0,.46-.27.7.7,0,0,0,.13-.52l-.44-3.09a.71.71,0,0,0-.79-.59l-1.19.17a8.59,8.59,0,0,0-1-1.67l.73-1a.7.7,0,0,0,.13-.52.73.73,0,0,0-.27-.46L27,16a.69.69,0,0,0-1,.14l-.73,1a7.76,7.76,0,0,0-1.88-.48l-.17-1.2a.71.71,0,0,0-.79-.59l-3.09.45a.67.67,0,0,0-.46.27.72.72,0,0,0-.13.51l.17,1.2a8.08,8.08,0,0,0-1.67,1l-1-.72a.75.75,0,0,0-.52-.14.72.72,0,0,0-.46.28L13.5,20.2a.66.66,0,0,0-.13.51.71.71,0,0,0,.27.46l1,.72a8.21,8.21,0,0,0-.49,1.89L12.93,24a.67.67,0,0,0-.46.27.71.71,0,0,0-.13.51Zm2.07-2.75a.67.67,0,0,0,.59-.64A6.84,6.84,0,0,1,16.09,22a.69.69,0,0,0-.21-.85L15,20.47l1-1.39.85.64a.69.69,0,0,0,.87,0,6.81,6.81,0,0,1,2.2-1.3.71.71,0,0,0,.45-.75l-.15-1.05L22,16.34l.15,1a.71.71,0,0,0,.65.6,6.73,6.73,0,0,1,2.47.63.7.7,0,0,0,.85-.21l.63-.85,1.39,1-.63.85a.68.68,0,0,0,0,.87,6.81,6.81,0,0,1,1.3,2.2.71.71,0,0,0,.76.45l1-.15.25,1.71-1.05.15a.7.7,0,0,0-.59.65,7,7,0,0,1-.64,2.47.7.7,0,0,0,.22.85l.84.63-1,1.39L27.79,30a.71.71,0,0,0-.88,0,7,7,0,0,1-2.19,1.31.68.68,0,0,0-.45.75l.15,1-1.72.25-.15-1a.69.69,0,0,0-.64-.59,6.93,6.93,0,0,1-2.48-.63.59.59,0,0,0-.29-.07.68.68,0,0,0-.55.28l-.64.84-1.39-1,.64-.85a.71.71,0,0,0,0-.88,6.77,6.77,0,0,1-1.3-2.19.69.69,0,0,0-.75-.45l-1,.15-.24-1.72Z"></path><path class="cls-2" d="M22.35,29.86a4.31,4.31,0,0,0,.71-.05,5,5,0,1,0-.71.05Zm-.51-8.55a2.92,2.92,0,0,1,.51,0,3.62,3.62,0,1,1-.51,0Z"></path></svg>