<svg id="Layer_1" data-name="Layer 1" xmlns="http://www.w3.org/2000/svg" xmlns:xlink="http://www.w3.org/1999/xlink" viewBox="0 0 68 66"><defs><linearGradient id="linear-gradient" x1="4.44" y1="3.44" x2="63.56" y2="62.56" gradientUnits="userSpaceOnUse"><stop offset="0" stop-color="#8a54ea"></stop><stop offset="1" stop-color="#aa45e3"></stop></linearGradient></defs><title>Artboard 3</title><rect class="cls-1" x="1" y="1" width="66" height="64" rx="10"></rect><path class="cls-2" d="M43.34,16.65l.11,0a.9.9,0,0,0,.22-.06,1.62,1.62,0,0,0-.62-3.12,1.44,1.44,0,0,0-.39.05c-.33.09-.68.19-1,.32l-.27.09c-.29.1-.56.21-.84.32l0,0-.11,0c-.3.13-.59.26-.9.42l-.21.11-.67.37-.18.11a8.32,8.32,0,0,0-.76.5l-.14.1-.58.43-.18.14c-.22.19-.43.37-.64.57l-.05,0c-.18.17-.36.35-.52.52l-.15.16c-.16.17-.32.35-.47.53l0,.06c-.16.19-.31.39-.46.59l-.12.15-.34.5-.07.11c-.13.19-.25.39-.38.61a.91.91,0,0,1-.06.11c-.09.16-.18.31-.25.46l-.08.15c-.1.19-.19.37-.27.56l0,.1c-.07.15-.13.3-.19.44l-.06.16c-.07.16-.13.33-.19.48l0,0a1.21,1.21,0,0,1-.05.14H31.13a7.81,7.81,0,0,0-7.8,7.8v14h0a7.81,7.81,0,0,0,7.8,7.8H35.7a7.8,7.8,0,0,0,7.79-7.8v-14A7.81,7.81,0,0,0,35.83,23,11.89,11.89,0,0,1,43.34,16.65ZM42,44.76A6.27,6.27,0,0,1,35.7,51H31.13a6.27,6.27,0,0,1-6.26-6.26V37H42Zm-8-21.31a.77.77,0,0,0,.72,1h1A6.27,6.27,0,0,1,42,30.75v4.67H24.87V30.75a6.27,6.27,0,0,1,6.26-6.26h1.69a.77.77,0,0,0,.74-.54q.09-.3.21-.63h0v0c0-.14.11-.29.17-.43l.06-.14c.05-.13.11-.27.17-.4l0-.1.24-.49.07-.14c.07-.14.15-.27.24-.43l.06-.11c.1-.17.21-.34.33-.52l.06-.1.3-.44.11-.14c.13-.18.26-.35.4-.52l0-.06c.13-.16.28-.31.42-.47l.13-.14c.15-.16.31-.31.48-.47l0,0c.18-.17.37-.33.56-.49l.16-.13c.16-.13.33-.26.52-.39l.12-.09c.22-.15.44-.3.68-.44l.16-.1c.2-.11.4-.23.64-.35l.16-.08c.28-.14.54-.26.82-.38l.13-.06.74-.28.26-.09.95-.29a.09.09,0,0,1,.08.08.08.08,0,0,1,0,0l-.16,0A13.5,13.5,0,0,0,33.94,23.45Z"></path><path class="cls-2" d="M33.41,25.5A2.49,2.49,0,0,0,30.93,28v4.57a2.48,2.48,0,0,0,5,0V28h0a2.49,2.49,0,0,0-2.44-2.48ZM34.35,28v4.57a.94.94,0,0,1-1.87,0V28a.92.92,0,0,1,.91-.93h0A.94.94,0,0,1,34.35,28Z"></path></svg>