<svg id="Layer_1" data-name="Layer 1" xmlns="http://www.w3.org/2000/svg" xmlns:xlink="http://www.w3.org/1999/xlink" viewBox="0 0 68 66"><defs><linearGradient id="linear-gradient" x1="4.44" y1="3.44" x2="63.56" y2="62.56" gradientUnits="userSpaceOnUse"><stop offset="0" stop-color="#8a54ea"></stop><stop offset="1" stop-color="#aa45e3"></stop></linearGradient></defs><title>Artboard 6</title><rect class="cls-1" x="1" y="1" width="66" height="64" rx="10"></rect><path class="cls-2" d="M53,20.23a.77.77,0,0,0-.14-.21l0,0a1.17,1.17,0,0,0-1.13-.34,1.2,1.2,0,0,0-.85.85,2,2,0,0,1-2.58,1.37A2.21,2.21,0,0,1,46.82,20a.38.38,0,0,1,0-.15A2.18,2.18,0,0,1,48.52,18a1.18,1.18,0,0,0,.91-.79,1.15,1.15,0,0,0-.26-1.14l-2.82-3a1.19,1.19,0,0,0-.59-.33.52.52,0,0,0-.18,0,1.14,1.14,0,0,0-.75.3l-2.7,2.45a3.42,3.42,0,0,0-5.45-1.2,3.42,3.42,0,0,0-.16,4.79,3.35,3.35,0,0,0,.94.73L34.8,22.27a.7.7,0,0,0-.13.15,1.13,1.13,0,0,0-.24.59.49.49,0,0,0,0,.17,1,1,0,0,0,.29.61l2.78,3.07a1.15,1.15,0,0,0,1.12.34,1.18,1.18,0,0,0,.86-.84,2.17,2.17,0,0,1,1.94-1.55h.14a2.2,2.2,0,0,1,1.76,1.56,2,2,0,0,1-.58,2,2,2,0,0,1-1,.48,1.16,1.16,0,0,0-.68,1.93l0,.05a.75.75,0,0,0,.2.15L44,33.83a1.11,1.11,0,0,0,.71.36h.18a1.07,1.07,0,0,0,.38-.13,1.1,1.1,0,0,0,.24-.16l2.92-2.66a.52.52,0,0,0,.1-.11,1.16,1.16,0,0,0,.17-1,1.09,1.09,0,0,0-.69-.74,2.07,2.07,0,0,1-.76-.52,2,2,0,0,1-.51-1.48A2,2,0,0,1,47.45,26s0,0,0-.05a2.05,2.05,0,0,1,1.45-.6,2,2,0,0,1,1.43.63,2,2,0,0,1,.45.8,1.13,1.13,0,0,0,.68.75,1.22,1.22,0,0,0,1-.09l.11-.09,2.89-2.7a1.12,1.12,0,0,0,.33-.58.41.41,0,0,0,0-.19,1.17,1.17,0,0,0-.3-.74Zm-.92,5.69a3.56,3.56,0,1,0-5.87,3.9,3.53,3.53,0,0,0,.89.7L44.8,32.59l-2.29-2.46A3.43,3.43,0,0,0,44.72,26a3.65,3.65,0,0,0-2.82-2.6,1.87,1.87,0,0,0-.67,0,3.63,3.63,0,0,0-3,2.14L36,23.09l2.64-2.46a1.18,1.18,0,0,0,.26-.37,1.16,1.16,0,0,0-.59-1.65,1.88,1.88,0,0,1-.76-.52,2,2,0,0,1,.08-2.76,2,2,0,0,1,2.78.13,2,2,0,0,1,.45.8,1.14,1.14,0,0,0,.65.74,1.18,1.18,0,0,0,.94,0,1.09,1.09,0,0,0,.39-.23l2.67-2.43,2.25,2.41a3.66,3.66,0,0,0-2.37,2.8,1.87,1.87,0,0,0,0,.67,3.68,3.68,0,0,0,2.37,3,3.43,3.43,0,0,0,3.47-.73A3.34,3.34,0,0,0,52,21.34l2.26,2.49Z"></path><path class="cls-2" d="M16.72,52.13a1.17,1.17,0,0,0,1.17,1.15h0l13.39-.08h.1a1.18,1.18,0,0,0,.46.09l4.15,0,.15,0A1.16,1.16,0,0,0,37,52.6a1.14,1.14,0,0,0,0-1,2.17,2.17,0,0,1,.26-2.3.32.32,0,0,1,.1-.1,2.49,2.49,0,0,1,1.42-.49,2,2,0,0,1,1.78,2.88,1.12,1.12,0,0,0,0,1,1.17,1.17,0,0,0,.82.63h.14l3.95,0a1.12,1.12,0,0,0,.82-.35,1.15,1.15,0,0,0,.34-.82l0-4.12a1.15,1.15,0,0,0-1.16-1.16,1.2,1.2,0,0,0-.64.19,1.92,1.92,0,0,1-1.07.32A2,2,0,0,1,41.9,46.2a2.2,2.2,0,0,1,.24-2.33.35.35,0,0,1,.1-.11,2.47,2.47,0,0,1,1.42-.48,2,2,0,0,1,1.06.3,1.18,1.18,0,0,0,1.45-.16,1.14,1.14,0,0,0,.33-.81l0-4.14a1.18,1.18,0,0,0-1.17-1.16l-3.55,0A3.37,3.37,0,0,0,42,36.2a3.43,3.43,0,0,0-3.43-3.4,4,4,0,0,0-2.22.72,2.66,2.66,0,0,0,.29-.45,3.65,3.65,0,0,0-.35-3.82,1.91,1.91,0,0,0-.47-.47,3.76,3.76,0,0,0-3.37-.53l0-3.54a1.16,1.16,0,0,0-1.17-1.15l-3.55,0a3.67,3.67,0,0,0-.56-3.39,1.75,1.75,0,0,0-.47-.47,4,4,0,0,0-2.2-.71h0A3.43,3.43,0,0,0,21,22.46a3.71,3.71,0,0,0,.21,1.15l-3.55,0a1.15,1.15,0,0,0-.82.34,1.17,1.17,0,0,0-.34.82l0,4.16a.66.66,0,0,0,0,.14,1.17,1.17,0,0,0,1.14.93,1.06,1.06,0,0,0,.52-.13,2.21,2.21,0,0,1,2.31.26.32.32,0,0,1,.1.1,2.23,2.23,0,0,1,.26,2.33,2,2,0,0,1-2.66.86,1.22,1.22,0,0,0-.5-.11,1.15,1.15,0,0,0-1.13.94.59.59,0,0,0,0,.14l0,3.95a.74.74,0,0,0,.08.3.43.43,0,0,1,0,0l0,3.4a3.64,3.64,0,0,0-3.38.55,1.91,1.91,0,0,0-.47.47A3.66,3.66,0,0,0,12.5,47a3.41,3.41,0,0,0,3,1.82,3.26,3.26,0,0,0,1.16-.21Zm20-13.88a1.12,1.12,0,0,0,0-1.12A2.19,2.19,0,0,1,37,34.82l.1-.1a2.47,2.47,0,0,1,1.42-.48,2,2,0,0,1,1.78,2.87,1.13,1.13,0,0,0,.05,1.11,1.17,1.17,0,0,0,1,.56l3.69,0,0,3.38a3.71,3.71,0,0,0-3.64.44,1.79,1.79,0,0,0-.47.48,3.63,3.63,0,0,0-.32,3.81,3.4,3.4,0,0,0,4.46,1.51l0,3.38-3.16,0a3.55,3.55,0,0,0,.18-1.12,3.44,3.44,0,0,0-3.43-3.41,4,4,0,0,0-2.24.74,2,2,0,0,0-.47.48,3.69,3.69,0,0,0-.53,3.35l-3.36,0,0-3.7A1.17,1.17,0,0,0,30.93,47a1.19,1.19,0,0,0-.53.13,2,2,0,0,1-2.69-.83A2.22,2.22,0,0,1,28,44a.32.32,0,0,1,.1-.1,2.24,2.24,0,0,1,2.32-.28,1.17,1.17,0,0,0,1.35-.21,1.21,1.21,0,0,0,.33-.83l0-3.7,3.69,0A1.14,1.14,0,0,0,36.7,38.25Zm-1.41-.88-2.83,0,0-2.66a3.52,3.52,0,0,0,1.13.18,3.36,3.36,0,0,0,2.18-.8A3.64,3.64,0,0,0,35.29,37.37ZM19.11,35.1a3.4,3.4,0,0,0,3-1.85,3.65,3.65,0,0,0-.36-3.81,1.75,1.75,0,0,0-.47-.47A3.73,3.73,0,0,0,18,28.44l0-3.37,3.69,0a1.15,1.15,0,0,0,1-.57,1.12,1.12,0,0,0,0-1.12,1.92,1.92,0,0,1-.23-.91A2,2,0,0,1,23,21a2,2,0,0,1,1.42-.58h0a2.51,2.51,0,0,1,1.39.46l.1.1a2.23,2.23,0,0,1,.28,2.33,1.12,1.12,0,0,0,0,1.12,1.17,1.17,0,0,0,1,.56l3.7,0,0,3.68a1.17,1.17,0,0,0,1.16,1.16,1.12,1.12,0,0,0,.53-.13A2.2,2.2,0,0,1,35,30a.52.52,0,0,1,.11.1,2.23,2.23,0,0,1,.26,2.33,2,2,0,0,1-1.77,1.08,1.9,1.9,0,0,1-.88-.21,1.16,1.16,0,0,0-1.33.22,1.17,1.17,0,0,0-.34.83l0,3.36a1.34,1.34,0,0,0-.2.21h0l-.07.12-3.54,0a.43.43,0,0,1-.38-.22.45.45,0,0,1,0-.46,2.89,2.89,0,0,0-.2-3.28,1.11,1.11,0,0,0-.29-.28,3.2,3.2,0,0,0-1.8-.6,2.74,2.74,0,0,0-1.93.8,2.74,2.74,0,0,0-.36,3.37.47.47,0,0,1,0,.47.45.45,0,0,1-.39.23l-3.9,0,0-3.16A3.5,3.5,0,0,0,19.11,35.1ZM15.54,47.34a2,2,0,0,1-1.77-1.05A2.21,2.21,0,0,1,14,44a.47.47,0,0,1,.1-.1,2.21,2.21,0,0,1,2.32-.27,1.17,1.17,0,0,0,1.13,0,1.14,1.14,0,0,0,.55-1v-3l3.83,0a1.89,1.89,0,0,0,1.57-2.91,1.26,1.26,0,0,1-.2-.68,1.22,1.22,0,0,1,.37-.9A1.41,1.41,0,0,1,25.5,35a1.46,1.46,0,0,1,.13,1.63,1.88,1.88,0,0,0,1.59,2.89l3.37,0,0,2.67a3.72,3.72,0,0,0-3.39.55,1.87,1.87,0,0,0-.46.47A3.69,3.69,0,0,0,26.44,47a3.44,3.44,0,0,0,3,1.82,3.26,3.26,0,0,0,1.16-.21l0,3.09-.08.1-12.43.08,0-3.7a1.17,1.17,0,0,0-1.69-1A2,2,0,0,1,15.54,47.34Z"></path></svg>