<svg id="Layer_1" data-name="Layer 1" xmlns="http://www.w3.org/2000/svg" xmlns:xlink="http://www.w3.org/1999/xlink" viewBox="0 0 68 66"><defs><linearGradient id="linear-gradient" x1="4.44" y1="3.44" x2="63.56" y2="62.56" gradientUnits="userSpaceOnUse"><stop offset="0" stop-color="#8a54ea"></stop><stop offset="1" stop-color="#aa45e3"></stop></linearGradient></defs><title>Artboard 8</title><rect class="cls-1" x="1" y="1" width="66" height="64" rx="10"></rect><path class="cls-2" d="M46.87,50.59c0-.16.11-4.13-2.39-6.42a.69.69,0,0,0-.88,0c-.11.08-2.74,2-5.23,0a.68.68,0,0,0-.88,0,5.42,5.42,0,0,0-.76.86,8.34,8.34,0,0,0-1.39-1.66.68.68,0,0,0-.88,0c-.17.13-4.1,3-7.84,0a.68.68,0,0,0-.89,0,12.4,12.4,0,0,0-3.57,9,.68.68,0,0,0,.2.49.67.67,0,0,0,.49.21H38a.7.7,0,0,0,.69-.67c0-.06,0-.45,0-1.05h7.54A.69.69,0,0,0,46.87,50.59Zm-23.3,1a11.46,11.46,0,0,1,2.69-6.84c3.57,2.49,7.21.77,8.53,0,2,2.18,2.41,5.46,2.49,6.86Zm14.92-1.72a14,14,0,0,0-1-3.52,7.12,7.12,0,0,1,.55-.78,5.61,5.61,0,0,0,5.9,0,7.63,7.63,0,0,1,1.55,4.31Z"></path><path class="cls-2" d="M39.75,26.28H34.38V28a1.53,1.53,0,0,0,1.53,1.53h4.77L42,31.06a.5.5,0,0,0,.39.18.79.79,0,0,0,.2,0,.53.53,0,0,0,.31-.52l-.09-1.18H45.3A1.53,1.53,0,0,0,46.83,28v-6A1.53,1.53,0,0,0,45.3,20.4H42v3.67A2.21,2.21,0,0,1,39.75,26.28Zm2.33-2.18V21.43H45.3a.5.5,0,0,1,.5.5v6a.5.5,0,0,1-.5.5h-3a.52.52,0,0,0-.38.17.49.49,0,0,0-.13.39v.17l-.48-.55a.53.53,0,0,0-.39-.18h-5a.49.49,0,0,1-.49-.5V26.36h4.4A2.26,2.26,0,0,0,42.08,24.1Z"></path><path class="cls-2" d="M21.13,24.07a2.21,2.21,0,0,0,2.21,2.21h5.95l-.16,2.14a.59.59,0,0,0,.36.59.59.59,0,0,0,.23,0,.58.58,0,0,0,.45-.21l2.23-2.57h7.35A2.21,2.21,0,0,0,42,24.07V15.24A2.21,2.21,0,0,0,39.75,13H23.34a2.21,2.21,0,0,0-2.21,2.22Zm1.19-8.83a1,1,0,0,1,1-1H39.75a1,1,0,0,1,1,1v8.83a1,1,0,0,1-1,1H32.13a.61.61,0,0,0-.45.2l-1.23,1.42.08-1a.61.61,0,0,0-.16-.45.56.56,0,0,0-.43-.19h-6.6a1,1,0,0,1-1-1Z"></path><path class="cls-2" d="M40.9,44.13h0a4.74,4.74,0,1,0-3.35-8.08,4.52,4.52,0,0,0-.69.89c0-.21,0-.43,0-.64a6.48,6.48,0,1,0-6.47,6.47h0a6.48,6.48,0,0,0,5.75-3.52s0,.1,0,.15A4.75,4.75,0,0,0,40.9,44.13ZM38.52,37a3.36,3.36,0,1,1,2.38,5.73h0A3.36,3.36,0,0,1,38.52,37ZM34,39.9a5,5,0,0,1-3.6,1.5h0A5.1,5.1,0,1,1,34,39.9Z"></path></svg>