<svg id="Layer_1" data-name="Layer 1" xmlns="http://www.w3.org/2000/svg" xmlns:xlink="http://www.w3.org/1999/xlink" viewBox="0 0 68 66"><defs><linearGradient id="linear-gradient" x1="4.44" y1="3.44" x2="63.56" y2="62.56" gradientUnits="userSpaceOnUse"><stop offset="0" stop-color="#8a54ea"></stop><stop offset="1" stop-color="#aa45e3"></stop></linearGradient></defs><title>Artboard 7</title><rect class="cls-1" x="1" y="1" width="66" height="64" rx="10"></rect><path class="cls-2" d="M43.9,15a.31.31,0,0,1-.17-.17.25.25,0,0,1,0-.12.25.25,0,0,0,0,.12.31.31,0,0,0,.17.17l3.79,1.53a.25.25,0,0,0,.12,0,.25.25,0,0,1-.12,0Z"></path><path class="cls-2" d="M15,26.82h.54V23.9a1.23,1.23,0,0,1,1.23-1.23H40.48l.12-.31.39-.95H16.75a2.49,2.49,0,0,0-2.49,2.49v3.86h0a.64.64,0,0,1,.1-.33A.63.63,0,0,1,15,26.82Z"></path><path class="cls-2" d="M51.25,21.1h-5l-.51,1.26h5.56a1.23,1.23,0,0,1,1.23,1.22v3.24h.63a.63.63,0,0,1,.63.63h0V23.58A2.49,2.49,0,0,0,51.25,21.1Z"></path><path class="cls-2" d="M53.11,26.82H43.88l1.81-4.46.51-1.26,1.9-4.7a.35.35,0,0,1-.17.17l-.12,0a.25.25,0,0,1-.12,0L43.9,15a.31.31,0,0,1-.17-.17.37.37,0,0,1,0-.24L41.11,21.1l-.12.31-.39.95-.12.31L38.8,26.82H15a.63.63,0,0,0-.62.61v0h0V46.64a2.48,2.48,0,0,0,2.48,2.48H51.25a2.49,2.49,0,0,0,2.49-2.48V27.45h0A.63.63,0,0,0,53.11,26.82Zm-.63,19.82a1.23,1.23,0,0,1-1.23,1.23H16.84a1.23,1.23,0,0,1-1.23-1.23V28.08H38.29l-2.66,6.57s0,0,0,.06l.58.24h0l0-.07,8-19.72,3.21,1.29-8,19.73,0,.06.59.24h0l0-.07,3.37-8.33h9.11Z"></path><path class="cls-2" d="M16.59,24.24a.35.35,0,0,0,.35.35h2.71a.35.35,0,1,0,0-.7H16.94A.35.35,0,0,0,16.59,24.24Z"></path><path class="cls-2" d="M48.71,24.59h2.71a.35.35,0,0,0,0-.7H48.71a.35.35,0,0,0,0,.7Z"></path><path class="cls-2" d="M43.71,14.75a.25.25,0,0,0,0,.12.31.31,0,0,0,.17.17l3.79,1.53a.25.25,0,0,0,.12,0l.12,0a.35.35,0,0,0,.17-.17h0l.23-.58a2.2,2.2,0,0,0-1.43-2.74A2.5,2.5,0,0,0,45.16,13,1.86,1.86,0,0,0,44,14.06l-.23.57h0A.25.25,0,0,0,43.71,14.75Zm.83-.46a1.24,1.24,0,0,1,.81-.7,1.92,1.92,0,0,1,1.31.07,1.59,1.59,0,0,1,1.09,1.93l-.12.28-3.2-1.3Z"></path><path class="cls-2" d="M35.17,39.71l.2.09.13.06-.2,1.64a.1.1,0,0,0,.18.06l.92-1.3.1.05.21.09,3.35-3.88-.09,0h0l-.59-.24L36.19,35h0l-.58-.24-.15-.06Zm1.37-.07-.72-.32L36,35.57l3,1.2Z"></path></svg>