<svg id="Layer_1" data-name="Layer 1" xmlns="http://www.w3.org/2000/svg" xmlns:xlink="http://www.w3.org/1999/xlink" viewBox="0 0 68 66"><defs><linearGradient id="linear-gradient" x1="7.37" y1="6.37" x2="60.62" y2="59.62" gradientUnits="userSpaceOnUse"><stop offset="0" stop-color="#8a54ea"></stop><stop offset="1" stop-color="#aa45e3"></stop></linearGradient><linearGradient id="linear-gradient-2" x1="4.44" y1="3.44" x2="63.56" y2="62.56" xlink:href="#linear-gradient"></linearGradient></defs><title>Artboard 1</title><rect class="cls-1" x="1" y="1" width="66" height="64" rx="20"></rect><rect class="cls-2" x="1" y="1" width="66" height="64" rx="10"></rect><path class="cls-3" d="M18.89,36.72a.53.53,0,0,1,.53.53V43H48.33V36.38A40,40,0,0,0,34,34a38.89,38.89,0,0,0-15.2,2.78Z"></path><path class="cls-4" d="M11.87,44.06h3.26a.53.53,0,0,0,.53-.53.53.53,0,0,0-.53-.53h-2.7c.3-2.39,2.58-4.55,6.13-6.15a.49.49,0,0,0-.2.4v6.28a.53.53,0,0,0,.53.53h30a.52.52,0,0,0,.53-.53V36.82C53,38.43,55.27,40.6,55.57,43H52.42a.53.53,0,0,0-.53.53.52.52,0,0,0,.53.53h3.71a.53.53,0,0,0,.53-.53c0-6-9.95-10.63-22.66-10.63h0a.51.51,0,0,0,.17-.39V29.63a5.86,5.86,0,1,0-6.39-5.83.53.53,0,0,0,.53.53.53.53,0,0,0,.53-.53,4.8,4.8,0,1,1,4.8,4.8.53.53,0,0,0-.53.53v3.38a.55.55,0,0,0,.19.4c-12.35.18-21.91,4.78-21.91,10.62A.53.53,0,0,0,11.87,44.06Zm36.46-7.68V43H19.42V37.25a.53.53,0,0,0-.53-.53l-.09,0A38.89,38.89,0,0,1,34,34,40,40,0,0,1,48.33,36.38Z"></path></svg>