<?xml version="1.0"?>

<svg version="1.1" id="Layer_1" xmlns="http://www.w3.org/2000/svg" xmlns:xlink="http://www.w3.org/1999/xlink" x="0px" y="0px" viewBox="0 0 280.6 340" style="enable-background:new 0 0 280.6 340;" xml:space="preserve">

<path class="st0" d="M221.2,111.1c1.5,6.8-0.8,13.9,0.9,20.7c1.7,6.5,8.1,10.4,9.4,16.9c0.6,3.5,1.6,7,2.9,10.4c1.3,3,2.8,6,4.6,8.7&#xA;&#x9;c4,6.3,9.1,11.8,13,18.1c4.7,7.7,8.3,16.6,8.1,25.8c0,0.2,0.2,0.4,0.5,0.3c0.2,0,0.3-0.2,0.3-0.3c0.2-7.8-2.4-15.3-5.9-22.1&#xA;&#x9;c-3.6-6.8-8.6-12.6-13.1-18.9c-4.3-5.7-7.3-12.2-9-19.2c-0.3-1.8-0.7-3.5-1.2-5.2c-0.6-1.4-1.3-2.8-2.2-4.1c-1.9-2.7-4.1-5.1-5.6-8&#xA;&#x9;c-3.6-7.3-0.2-15.8-2-23.5C221.9,110.4,221.1,110.6,221.2,111.1L221.2,111.1z"></path>
<path class="st0" d="M131.9,61.1c-2.4,3.5-5.1,6.8-8.1,9.8c-0.4,0.3,0.2,0.9,0.6,0.6c3.2-2.9,5.6-6.5,8.2-9.9&#xA;&#x9;C132.9,61.1,132.2,60.7,131.9,61.1L131.9,61.1z"></path>
<path class="st0" d="M192.3,79c-0.2,2.2,0,4.3-0.2,6.4c-0.2,1.8-0.7,3.6-1.4,5.3c-1.2,3.1-2.9,6.1-3.1,9.5c0,0.5,0.8,0.5,0.8,0&#xA;&#x9;c0.2-3.5,2.1-6.7,3.3-9.9c0.6-1.6,1-3.2,1.2-4.9c0.2-2.2,0-4.3,0.2-6.4C193.1,78.5,192.4,78.5,192.3,79z"></path>
<path class="st0" d="M192.6,76.6c-0.1,1.8-0.2,3.5-0.3,5.3c0,0.5,0.8,0.5,0.8,0c0.1-1.8,0.2-3.5,0.3-5.3&#xA;&#x9;C193.4,76.1,192.6,76.1,192.6,76.6z"></path>
<path class="st0" d="M192.6,90.6c3.5-1.5,5.4-4.9,6.5-8.4c0.1-0.5-0.6-0.7-0.8-0.2c-1,3.3-2.9,6.5-6.2,8&#xA;&#x9;C191.8,90.1,192.2,90.8,192.6,90.6z"></path>
<path class="st0" d="M193.2,91.1c1.6,1.4,0.6,4.1-0.1,5.7c-1,2.1-2.1,4.1-3.3,6.1c-0.1,0.2,0,0.4,0.2,0.5c0.2,0.1,0.4,0,0.5-0.1&#xA;&#x9;c1.4-2.2,2.6-4.4,3.6-6.8c0.7-1.8,1.5-4.5-0.3-6C193.4,90.2,192.9,90.8,193.2,91.1L193.2,91.1z"></path>
<path class="st0" d="M169.4,81c-4.8-0.5-0.7,7.6,0.2,9.3c0.9,1.7,1.9,3.8,3,5.6c2.3,3.9,5,7.6,5.1,12.2c0,0.2,0.2,0.4,0.5,0.3&#xA;&#x9;c0.2,0,0.3-0.2,0.3-0.3c-0.1-6.1-4.4-11.1-7.2-16.2c-1.1-1.9-2-3.9-2.8-6c-0.5-1.3-1.4-4.3,0.9-4.1C169.9,81.7,169.9,81,169.4,81&#xA;&#x9;L169.4,81z"></path>
<path class="st0" d="M174.5,114.1c1.2-0.4,2.1-1.2,2.7-2.3c0.6-1.1,1.1-2.2,1.4-3.4c0-0.2-0.1-0.4-0.3-0.4c-0.2,0-0.4,0.1-0.4,0.2&#xA;&#x9;c-0.3,1.1-0.7,2.1-1.2,3.1c-0.5,0.9-1.3,1.7-2.3,2c-0.2,0.1-0.3,0.3-0.2,0.5C174.1,114,174.3,114.1,174.5,114.1z"></path>
<path class="st0" d="M169.9,81.8c0.9-0.4,2.2,0.9,2.8,1.4c0.9,0.8,1.7,1.6,2.5,2.4c2.7,2.7,4.6,5.9,6.8,9c0.3,0.4,1,0,0.7-0.4&#xA;&#x9;c-2.3-3.2-4.4-6.5-7.1-9.4c-0.9-1-1.9-1.9-3-2.7c-0.8-0.6-1.9-1.5-3-1.1C169.2,81.2,169.4,81.9,169.9,81.8L169.9,81.8z"></path>
<path class="st0" d="M182,94.4c0.8,1.4,1.8,2.8,3,3.9c1.4,1.5,2.6,3.3,3.5,5.1c1.9,3.8,2.6,8,4.1,12c1.2,3.3,2.2,6.7,4,9.8&#xA;&#x9;c0.8,1.4,1.9,2.6,3.1,3.6c1.4,1.1,2.5,2.6,3,4.3c0.1,0.2,0.3,0.3,0.5,0.3c0.2-0.1,0.3-0.3,0.3-0.5c-0.9-3.4-4.1-4.8-5.8-7.5&#xA;&#x9;c-2-3.2-3.1-7-4.4-10.5c-1.3-3.8-2.1-7.7-3.8-11.3c-0.8-1.7-1.8-3.2-3-4.7c-1.4-1.4-2.7-3-3.8-4.8C182.5,93.6,181.8,94.1,182,94.4&#xA;&#x9;L182,94.4z"></path>
<path class="st0" d="M202.7,133c1,3.8,2.2,7.6,3.7,11.3c0.6,1.5,1.1,3,1.6,4.5c0.3,1.3,0.9,2.6,1.7,3.7c0.3,0.4,0.9-0.2,0.6-0.6&#xA;&#x9;c-0.8-1.2-1.4-2.6-1.7-4c-0.4-1.6-1.1-3-1.6-4.5c-1.4-3.5-2.5-7-3.4-10.6C203.3,132.2,202.5,132.5,202.7,133L202.7,133z"></path>
<path class="st0" d="M180.5,152.5c0.3,1,0.7,2,1.3,2.9c0.4,0.6,0.9,1.1,1.4,1.6c0.5,0.5,0.9,1,1.2,1.6c0.4,1,0.7,2.1,0.8,3.2&#xA;&#x9;c0,0.5,0.8,0.5,0.8,0c0-1.8-0.7-3.6-1.9-5c-0.5-0.5-1-1-1.4-1.5c-0.6-0.9-1.1-1.8-1.4-2.8c-0.1-0.2-0.3-0.3-0.5-0.3&#xA;&#x9;C180.6,152,180.5,152.3,180.5,152.5L180.5,152.5z"></path>
<path class="st0" d="M185.2,161.7c1.2,4.1,1.4,8.4,2.9,12.5c0.2,0.5,0.9,0.3,0.8-0.2c-1.4-4-1.7-8.4-2.9-12.5&#xA;&#x9;C185.8,161,185,161.2,185.2,161.7z"></path>
<path class="st0" d="M209.5,152.6c2.9,2.9,4.4,6.7,5.6,10.4c0.2,0.5,0.9,0.3,0.8-0.2c-1.3-3.9-2.9-7.8-5.8-10.8&#xA;&#x9;c-0.2-0.2-0.4-0.2-0.6,0S209.4,152.5,209.5,152.6L209.5,152.6z"></path>
<path class="st0" d="M110,72.7c1.4-0.4,2.8-1,4.1-1.6c1.1-0.7,2-1.5,2.9-2.4c1.4-1.5,3.5-4.1,2.2-6.2c-1.2-2.1-3.1-0.8-4.7,0.1&#xA;&#x9;c-2.4,1.4-4.6,3.2-7,4.5c-1.9,0.9-3.9,1.7-6,2.3c-1.2,0.4-2.4,0.9-3.5,1.4c-1.1,0.6-2.2,1.2-3.2,2c-0.4,0.3,0,1,0.4,0.7&#xA;&#x9;c0.7-0.5,1.4-1,2.2-1.5c1.1-0.6,2.1-1,3.3-1.4c1.9-0.7,3.8-1.3,5.6-2c2-0.9,3.9-2.1,5.7-3.4c1.1-0.7,2.2-1.4,3.3-2.1&#xA;&#x9;c0.6-0.3,1.7-1.2,2.4-1.1c1.2,0.2,1.3,1.8,1.1,2.6c-0.4,1.2-1.1,2.3-2,3.2c-0.9,1-1.9,1.9-3.1,2.6c-1.3,0.6-2.7,1.1-4.1,1.6&#xA;&#x9;C109.1,72.3,109.6,73,110,72.7L110,72.7z"></path>
<path class="st0" d="M94.5,72.9c-0.7,2.3-1.6,4.6-2.8,6.8c-0.9,2.1-2,4.1-3.2,6c-2.4,3.4-5.6,6.9-6.2,11.2c-0.1,0.5,0.7,0.7,0.8,0.2&#xA;&#x9;c0.6-4.5,4.1-8,6.5-11.6c1.2-1.9,2.2-3.9,3.1-5.9c1-2.1,1.9-4.2,2.6-6.4c0.1-0.2-0.1-0.4-0.3-0.5S94.5,72.7,94.5,72.9L94.5,72.9&#xA;&#x9;L94.5,72.9z"></path>
<path class="st0" d="M82.1,96.8c-2.9,2.2-3.4,5.4-2.8,8.9c0.6,3.9,2.1,7.7,2.8,11.6c1,5.1,2.9,10,4,15.1c1.2,5.6,1,11.4,0.9,17.1&#xA;&#x9;c-0.1,6.5-0.5,13-0.8,19.4c0,0.5,0.8,0.5,0.8,0c0.2-5.5,0.5-11,0.7-16.5s0.5-11-0.2-16.3c-0.6-4.7-2.2-9.3-3.4-13.9&#xA;&#x9;c-1.1-4-1.9-8.2-3-12.2c-1.1-4-2.5-9.4,1.4-12.4C82.9,97.2,82.5,96.5,82.1,96.8L82.1,96.8z"></path>
<path class="st0" d="M86.7,93.1c1.7-2.1,3.5-4,5.4-5.8c1.3-1.3,2.5-2.8,3.5-4.4c0.9-1.5,2-2.8,3.3-4c1.6-1.2,3.6-1.8,5.6-1.7&#xA;&#x9;c0.5,0,0.5-0.8,0-0.8c-1.9-0.2-3.9,0.4-5.5,1.4c-1.4,1.1-2.5,2.3-3.5,3.8c-1.1,1.7-2.3,3.3-3.6,4.7c-2,1.9-4,4-5.7,6.1&#xA;&#x9;C85.8,93,86.4,93.5,86.7,93.1L86.7,93.1z"></path>
<path class="st0" d="M104.9,77.3c1.6-0.7,3.4,2.6,4.1,3.7c1.6,2.1,3.4,3.9,5.3,5.6c1.6,1.5,3.6,3.1,4.6,5.2c0.4,0.6,0.5,1.3,0.3,2&#xA;&#x9;c-0.4,0.8-1.7,0.7-2.5,0.7c-0.5,0-0.5,0.8,0,0.8c1.3,0.1,3.1-0.1,3.4-1.7c0-1.4-0.5-2.7-1.4-3.7c-1.8-2-3.6-3.9-5.7-5.6&#xA;&#x9;c-1-0.9-2-1.9-2.9-3c-0.5-0.7-1-1.5-1.5-2.2c-0.9-1.2-2.3-3.1-4.1-2.4C104.1,76.8,104.5,77.5,104.9,77.3L104.9,77.3z"></path>
<path class="st0" d="M105.5,90.6c1.2,0.7,2.3,1.7,3.5,2.4c0.2,0.1,0.4,0,0.5-0.2c0.1-0.2,0-0.3-0.1-0.5c-1.3-0.6-2.3-1.6-3.5-2.4&#xA;&#x9;c-0.2-0.1-0.4-0.1-0.5,0.1C105.2,90.3,105.3,90.5,105.5,90.6L105.5,90.6z"></path>
<path class="st0" d="M105.1,88.4c-0.7,1.8-1.8,3.4-3.3,4.7c-1.4,1.3-2.9,2.5-4.6,3.5c-0.4,0.3,0,0.9,0.4,0.7&#xA;&#x9;c1.7-1.1,3.4-2.3,4.8-3.7c1.5-1.4,2.6-3.1,3.4-4.9C106.1,88.1,105.3,87.9,105.1,88.4L105.1,88.4z"></path>
<path class="st0" d="M90.5,100.9c5.4-0.6,9.7-4.5,14.7-6.2c2.4-0.8,5.7-1.9,8.2-1c1.8,0.7,2.1,3,2.7,4.6c0.2,0.5,0.9,0.3,0.8-0.2&#xA;&#x9;c-0.5-1.5-0.9-3.5-2.2-4.6c-1.7-1.3-4.5-0.9-6.4-0.5c-3,0.7-5.9,1.8-8.5,3.3c-2.9,1.6-5.8,3.4-9.1,3.8&#xA;&#x9;C90.1,100.2,90.1,101,90.5,100.9L90.5,100.9z"></path>
<path class="st0" d="M115.9,98.4c0.3,1.3,0.8,2.4,1.6,3.5c0.9,1.2,2.2,2.2,2.9,3.6c1,2.2,1.1,4.5,2.3,6.5c1.1,1.8,2.5,3.4,3.6,5.3&#xA;&#x9;c0.5,0.7,0.8,1.5,0.9,2.3c-0.1,1-1,1.7-2.1,1.6c-2.1-0.2-3.8-2.2-5.2-3.5c-0.4-0.3-0.9,0.2-0.6,0.6c1.5,1.3,2.9,2.8,4.7,3.5&#xA;&#x9;c1.6,0.6,3.8,0,4-2c0.2-2-1.6-3.9-2.6-5.3c-0.7-1-1.4-1.9-2-2.9c-0.7-1.1-1.1-2.3-1.4-3.5c-0.3-1.7-1-3.2-2.1-4.6&#xA;&#x9;c-1.4-1.7-2.7-3-3.3-5.2C116.5,97.8,115.7,98,115.9,98.4L115.9,98.4z"></path>
<path class="st0" d="M94.3,106.4c1.8,0,3.7,0.2,5.5,0.2c1.5-0.1,3.1-0.3,4.6-0.8c2.4-0.7,5.8-2.1,8.3-0.6c1.6,1.1,2.8,2.6,3.6,4.4&#xA;&#x9;c1.1,1.9,1.8,3.9,2.2,6.1c0.3,1.9,0.1,4.4-2,5.2c-0.5,0.2-0.3,0.9,0.2,0.8c4.2-1.5,2.5-7.4,1.3-10.5c-0.9-2.1-2.1-4.1-3.7-5.7&#xA;&#x9;c-1.8-1.7-4.1-1.8-6.4-1.3c-2,0.4-3.9,1.2-5.9,1.5c-2.5,0.2-5,0.2-7.5,0c-0.2,0-0.4,0.2-0.4,0.4S94.1,106.3,94.3,106.4L94.3,106.4z"></path>
<path class="st0" d="M111.8,112.3c0,1-0.1,2-0.4,3c-0.1,0.5,0.6,0.7,0.8,0.2c0.3-1.1,0.4-2.2,0.4-3.3c0-0.2-0.2-0.4-0.4-0.4&#xA;&#x9;S111.8,112.1,111.8,112.3L111.8,112.3L111.8,112.3z"></path>
<path class="st0" d="M111.5,116.2c0.4,0.2,0.7,0.5,1,0.8c0.3,0.4,0.6,0.9,0.9,1.4c0.4,0.9,1,1.8,1.7,2.5c0.4,0.3,0.9,0.4,1.4,0.2&#xA;&#x9;c0.2-0.1,0.3-0.3,0.3-0.5c-0.1-0.2-0.3-0.3-0.5-0.3c0,0,0,0,0,0l-0.1,0.1h-0.2c0,0,0.1,0,0,0h-0.1c-0.1,0,0,0-0.1,0l-0.1-0.1l0,0&#xA;&#x9;c-0.1-0.1,0,0,0,0c-0.3-0.3-0.6-0.6-0.8-1c-0.5-1-1.1-1.9-1.7-2.8c-0.3-0.5-0.8-0.8-1.3-1c-0.2-0.1-0.4,0.1-0.5,0.3&#xA;&#x9;C111.2,116,111.3,116.2,111.5,116.2L111.5,116.2z"></path>
<path class="st0" d="M111.1,115.2c-1-0.3-2-0.3-3,0c-0.7,0.3-1.3,0.7-1.8,1.3c-0.5,0.6-0.9,1.2-1.5,1.7c-0.7,0.6-1.5,1.1-2.4,1.3&#xA;&#x9;c-0.5,0.1-0.3,0.9,0.2,0.8c0.9-0.2,1.7-0.6,2.4-1.2c0.6-0.5,1.1-1.1,1.5-1.7c0.4-0.6,0.9-1,1.5-1.3c0.9-0.3,1.8-0.3,2.7-0.1&#xA;&#x9;C111.4,116.1,111.6,115.4,111.1,115.2z"></path>
<path class="st0" d="M104.3,119.4c2.8,4.1,5.2,8.6,6,13.6c0.9,5.2-0.7,10.5-4.2,14.4c-0.3,0.4,0.2,0.9,0.6,0.6&#xA;&#x9;c3.5-3.9,5.1-9.1,4.5-14.3c-0.7-5.3-3.2-10.3-6.2-14.6C104.7,118.5,104.1,119,104.3,119.4L104.3,119.4z"></path>
<path class="st0" d="M105.7,147.6c-0.2,3.3,0.3,6.5,0.4,9.8c0,1.7,0.2,3.3,0.3,5c0.1,2.1,0.1,4.2,0,6.3c-0.1,1.3-0.1,3.7-1.3,4.6&#xA;&#x9;c-0.4,0.3,0,1,0.4,0.7c1.1-0.8,1.3-2.3,1.5-3.5c0.2-2.3,0.3-4.5,0.2-6.8c-0.1-1.9-0.2-3.9-0.3-5.8c-0.1-3.4-0.6-6.8-0.4-10.2&#xA;&#x9;C106.4,147.2,105.6,147.2,105.7,147.6L105.7,147.6z"></path>
<path class="st0" d="M121,120.7c0.9,1.8,1.4,3.8,2.3,5.6c1,1.6,2.1,3.1,3.5,4.5c2.8,2.8,5.9,5.3,9.2,7.5c6.2,4.4,13.6,8.1,20.8,3.5&#xA;&#x9;c0.4-0.3,0-0.9-0.4-0.7c-7.2,4.6-14.6,0.3-20.7-4.1c-3-2.1-5.8-4.4-8.4-7c-1.4-1.3-2.5-2.9-3.4-4.6c-0.8-1.7-1.3-3.5-2.1-5.2&#xA;&#x9;C121.5,119.9,120.9,120.3,121,120.7L121,120.7z"></path>
<path class="st0" d="M135.6,73.3c1.2-1.3,2.4-2.6,3.4-4.1c0.5-0.7,1.1-1.3,1.6-2c0.2-0.2,0.4-0.5,0.7-0.7c0.1-0.1,0.3-0.2,0.4-0.3&#xA;&#x9;c0.5-0.1,0.3-0.8-0.2-0.8c-0.4,0.1-0.7,0.4-1,0.7c-0.4,0.4-0.8,0.9-1.2,1.3c-0.9,1.2-1.8,2.4-2.8,3.6c-0.5,0.6-0.9,1.1-1.5,1.6&#xA;&#x9;C134.7,73.1,135.2,73.7,135.6,73.3z"></path>
<path class="st0" d="M142,66.1c0.2,0,0.4-0.2,0.3-0.5c0-0.2-0.2-0.3-0.3-0.3c-0.2,0-0.4,0.2-0.3,0.5C141.7,66,141.8,66.1,142,66.1z"></path>
<path class="st0" d="M142.4,66.1h13c0.2,0,0.4-0.2,0.3-0.5c0-0.2-0.2-0.3-0.3-0.3h-13c-0.2,0-0.4,0.2-0.3,0.5&#xA;&#x9;C142.1,66,142.2,66.1,142.4,66.1z"></path>
<path class="st0" d="M155.1,66c1.2,1.2,2.3,2.4,3.4,3.7c1,1.2,2,2.4,2.8,3.7c0.3,0.4,0.9,0,0.7-0.4c-0.9-1.3-1.8-2.6-2.9-3.8&#xA;&#x9;c-1.1-1.3-2.3-2.6-3.5-3.8c-0.2-0.2-0.4-0.2-0.6,0C154.9,65.6,154.9,65.9,155.1,66z"></path>
<path class="st0" d="M134.9,73.2v3.1c0,0.2,0.2,0.4,0.5,0.3c0.2,0,0.3-0.2,0.3-0.3v-3.1c0-0.2-0.2-0.4-0.5-0.3&#xA;&#x9;C135.1,72.9,135,73,134.9,73.2z"></path>
<path class="st0" d="M161.5,73.6v3.1c0,0.2,0.2,0.4,0.4,0.4c0.2,0,0.4-0.2,0.4-0.4v-3.1c0-0.2-0.2-0.4-0.4-0.4&#xA;&#x9;C161.6,73.2,161.5,73.4,161.5,73.6L161.5,73.6z"></path>
<path class="st0" d="M150.1,79.6c-12.4-0.8-18.1,14.6-12.7,24.3c3.3,5.8,10.2,7.9,16.5,7.1c3.5-0.3,6.7-1.9,9.1-4.4&#xA;&#x9;c2.9-3.2,4-8.2,4.3-12.3c0.3-2.4-0.2-4.9-1.6-6.9c-1.4-1.9-3.1-3.5-5.1-4.8c-1.7-1.1-3.6-2-5.6-2.7c-1.6-0.5-3.6-1.1-5.2-0.3&#xA;&#x9;c-0.5,0.2-0.1,0.9,0.4,0.7c1.4-0.8,3.5,0,4.9,0.5c1.6,0.6,3.1,1.3,4.6,2.2c3.7,2.3,6.8,5.4,6.8,10c0,2.4-0.4,4.8-1.2,7.1&#xA;&#x9;c-0.5,2-1.4,3.8-2.5,5.4c-2.2,2.5-5.2,4.1-8.4,4.5c-5.9,0.9-12.7-0.8-16-6c-2.6-4.4-3.1-9.7-1.3-14.5c1.9-5.7,6.8-9.6,12.9-9.2&#xA;&#x9;C150.6,80.3,150.6,79.6,150.1,79.6L150.1,79.6z"></path>
<path class="st0" d="M146.3,76.7c-2.7,0.4-5.2,1.5-7.3,3.1c-2.2,1.6-4.1,3.5-5.6,5.7c-3,4.7-2.6,10.4-2.6,15.7&#xA;&#x9;c0,0.2,0.2,0.4,0.4,0.4c0.2,0,0.4-0.2,0.4-0.4c0-4.9-0.3-10.2,2.1-14.6c1.3-2.1,3-4,5-5.5c2.2-1.9,4.8-3.1,7.6-3.6&#xA;&#x9;C146.8,77.5,146.8,76.7,146.3,76.7z"></path>
<path class="st0" d="M140.4,113.9c0.9-0.1,2,0.8,2.8,1.2c1,0.4,1.9,0.6,3,0.8c2.1,0.4,4.3,0.5,6.5,0.3c3.7-0.2,7.2-1.4,10.3-3.5&#xA;&#x9;c2.9-2,5.1-4.7,6.6-7.9c1.6-3.3,2.7-7.6,2.1-11.2c-0.1-0.5-0.8-0.3-0.8,0.2c0.7,3.7-0.7,8.2-2.4,11.5c-1.6,3-3.9,5.6-6.8,7.4&#xA;&#x9;c-3.1,1.9-6.7,2.8-10.3,2.8c-2.1,0.1-4.2-0.1-6.2-0.6c-1-0.3-2.1-0.7-3-1.2c-0.5-0.3-1.1-0.5-1.7-0.5&#xA;&#x9;C139.9,113.1,139.9,113.9,140.4,113.9L140.4,113.9z"></path>
<path class="st0" d="M146.1,77.7c0.2,0,0.4-0.2,0.4-0.4s-0.2-0.4-0.4-0.4c-0.2,0-0.4,0.2-0.4,0.4S145.9,77.7,146.1,77.7L146.1,77.7z&#xA;&#x9;"></path>
<path class="st0" d="M146.6,77.7c1.6-0.9,3.7-0.6,5.4-0.4c1.7,0.2,3.6,0.4,5.4,0.8c1.9,0.4,3.8,1.2,5.4,2.3c0.9,0.6,1.7,1.3,2.4,2&#xA;&#x9;c0.7,0.6,1.3,1.5,1.6,2.4c0.1,0.5,0.8,0.5,0.8,0c-0.2-0.9-0.7-1.7-1.3-2.3c-0.6-0.8-1.4-1.5-2.2-2.2c-1.8-1.4-3.9-2.3-6.1-2.9&#xA;&#x9;c-2-0.4-4-0.7-6-0.9c-1.9-0.2-4.1-0.4-5.9,0.5c-0.2,0.1-0.2,0.4-0.1,0.5C146.3,77.7,146.5,77.8,146.6,77.7L146.6,77.7z"></path>
<path class="st0" d="M135.1,77.3h26.7c0.2,0,0.4-0.2,0.4-0.4c0-0.2-0.2-0.4-0.4-0.4h-26.7c-0.2,0-0.4,0.2-0.4,0.4&#xA;&#x9;C134.8,77.1,134.9,77.3,135.1,77.3z"></path>
<path class="st0" d="M138.7,71.6v3.3c0,0.2,0.2,0.4,0.5,0.3c0.2,0,0.3-0.2,0.3-0.3v-3.3c0-0.2-0.2-0.4-0.5-0.3&#xA;&#x9;C138.8,71.3,138.7,71.5,138.7,71.6z"></path>
<path class="st0" d="M138.9,71.9c1.3,0.6,2.1,2.1,3.3,2.9c0.4,0.3,0.8-0.4,0.4-0.7l-0.2-0.1l-0.1-0.1l-0.4-0.4&#xA;&#x9;c-0.3-0.3-0.5-0.5-0.8-0.8c-0.5-0.6-1.1-1.1-1.8-1.5c-0.2-0.1-0.4,0-0.5,0.1C138.6,71.5,138.7,71.7,138.9,71.9L138.9,71.9z"></path>
<path class="st0" d="M141.9,71.4v3.3c0,0.2,0.2,0.4,0.4,0.4c0.2,0,0.4-0.2,0.4-0.4v-3.3c0-0.2-0.2-0.4-0.4-0.4&#xA;&#x9;C142.1,71,141.9,71.2,141.9,71.4L141.9,71.4z"></path>
<path class="st0" d="M144.2,71.6c0.2,0,0.4-0.2,0.4-0.4s-0.2-0.4-0.4-0.4c-0.2,0-0.4,0.2-0.4,0.4S144,71.6,144.2,71.6z"></path>
<path class="st0" d="M143.8,73.2v1.4c0,0.2,0.2,0.4,0.4,0.4c0.2,0,0.4-0.2,0.4-0.4v-1.4c0-0.2-0.2-0.4-0.4-0.4&#xA;&#x9;C144,72.8,143.8,73,143.8,73.2z"></path>
<path class="st0" d="M146,70.9v3.6c0,0.2,0.2,0.4,0.4,0.4c0.2,0,0.4-0.2,0.4-0.4v-3.6c0-0.2-0.2-0.4-0.4-0.4&#xA;&#x9;C146.2,70.5,146,70.7,146,70.9z"></path>
<path class="st0" d="M146.9,74.2c0.8-0.3,1.5-0.8,2-1.4c0.1-0.2,0.1-0.4,0-0.6c-0.2-0.1-0.4-0.1-0.6,0c-0.1,0.2-0.3,0.3-0.4,0.4&#xA;&#x9;l-0.1,0.1h-0.1l0,0l-0.3,0.2c-0.3,0.2-0.7,0.4-1.1,0.6c-0.2,0.1-0.2,0.4-0.1,0.5C146.5,74.2,146.7,74.3,146.9,74.2L146.9,74.2z"></path>
<path class="st0" d="M147.5,74.2c0.4,0.2,0.8,0.4,1.2,0.5c0.2,0.1,0.4-0.1,0.5-0.3c0.1-0.2-0.1-0.4-0.3-0.5c0,0,0,0,0,0&#xA;&#x9;c-0.2,0-0.3-0.1-0.5-0.2h0.1c-0.2-0.1-0.4-0.2-0.6-0.3c-0.2-0.1-0.4,0-0.5,0.1C147.3,73.8,147.3,74.1,147.5,74.2L147.5,74.2z"></path>
<path class="st0" d="M150.7,72.5c-0.3,0.2-0.4,0.6-0.4,0.9c0,0.4,0.1,0.7,0.4,1c0.3,0.2,0.6,0.4,1,0.5c0.3,0.1,0.6,0.1,0.9,0&#xA;&#x9;c0.5-0.1,0.9-0.4,1.1-0.9c0.2-0.4,0.1-0.9-0.1-1.3c-0.4-0.5-1-0.8-1.6-0.8c-0.2,0-0.4,0.2-0.4,0.4s0.2,0.4,0.4,0.4h0.2&#xA;&#x9;c0,0,0.1,0,0,0h0.1h0.1h0.1l0,0c0.1,0,0,0,0,0s0.1,0.1,0.1,0.1l0.1,0.1c0.1,0-0.1-0.1,0,0c0.1,0.1,0,0,0,0l0.1,0.1l0,0l0,0&#xA;&#x9;c0,0,0.1,0.1,0.1,0.1l0,0l0,0l0,0v0.1c0,0,0,0,0,0.1s0,0.1,0,0s0,0,0,0v0.2c0,0,0,0.1,0,0l0,0v0.1v0.1c0,0,0.1-0.1,0,0&#xA;&#x9;c0,0,0,0.1-0.1,0.1l0,0l0,0c0,0-0.1,0-0.1,0.1l0,0l0,0l0,0l-0.1,0.1l0,0l0,0c-0.1,0,0.1,0,0,0h-0.1h-0.1l0,0c0.1,0,0,0,0,0h-0.2&#xA;&#x9;c0,0-0.1,0,0,0H152h-0.2l-0.2-0.1c-0.1,0,0,0,0,0l0,0h-0.1h-0.1l0,0l0,0l-0.1-0.1l0,0l0,0l0,0v-0.1c0,0,0-0.1,0-0.1l0,0l0,0&#xA;&#x9;c0,0,0-0.1,0-0.1l0,0c0-0.1,0,0.1,0,0v-0.1c0,0,0,0.1,0,0c0,0,0-0.1,0-0.1l0,0c0-0.1,0,0,0,0v-0.1l0,0l0,0l0,0c0,0,0,0,0.1,0&#xA;&#x9;c0.1-0.2,0.1-0.4,0-0.6c-0.1-0.2-0.4-0.2-0.5,0c0,0,0,0,0,0L150.7,72.5z"></path>
<path class="st0" d="M154.6,72.3v2.1c0,0.2,0.2,0.4,0.4,0.4c0.2,0,0.4-0.2,0.4-0.4v-2.1c0-0.2-0.2-0.4-0.4-0.4l0,0&#xA;&#x9;C154.8,71.9,154.6,72.1,154.6,72.3z"></path>
<path class="st0" d="M155.9,73.1C156,73.1,156,73,155.9,73.1L155.9,73.1l0.3-0.2l0.2-0.1l0,0h0.1h0.1h0.1l0,0c-0.1,0,0,0,0,0h0.1&#xA;&#x9;c0,0-0.1,0,0,0h0.1c0,0,0.1,0,0,0l0,0h0.1l0,0c0.1,0,0,0,0,0l0.1,0.1V73l0,0l0,0c0.1,0.1,0.1,0.2,0.2,0.3l0,0c0,0,0-0.1,0,0v0.1&#xA;&#x9;c0,0,0,0.1,0.1,0.2c0.1,0.1,0,0.2,0.1,0.2c0,0,0,0.1,0,0.1l0,0c0,0,0-0.1,0,0c0,0.2,0,0.3,0,0.5c0,0.2,0.2,0.4,0.4,0.4&#xA;&#x9;c0.2,0,0.4-0.2,0.4-0.4c0-0.6-0.1-1.2-0.5-1.8c-0.1-0.2-0.4-0.4-0.6-0.5c-0.3-0.1-0.6-0.2-0.9-0.1c-0.4,0.1-0.7,0.3-1,0.6&#xA;&#x9;c-0.2,0.1-0.2,0.4,0,0.5c0,0,0,0,0,0c0.2,0.1,0.4,0.1,0.6,0L155.9,73.1z"></path>
<path class="st0" d="M111.8,72.2v2.2c0,0.2,0.2,0.4,0.4,0.4c0.2,0,0.4-0.2,0.4-0.4c0,0,0,0,0,0v-2.2c0-0.2-0.2-0.4-0.4-0.4l0,0&#xA;&#x9;C111.9,71.9,111.8,72,111.8,72.2L111.8,72.2z"></path>
<path class="st0" d="M116,70.1c1.8-0.6,3.8-0.5,5.6,0.2l-0.3-0.4v0.8c0,0.2,0.2,0.4,0.4,0.4s0.4-0.2,0.4-0.4v-0.8&#xA;&#x9;c0-0.2-0.1-0.3-0.3-0.4c-1.9-0.8-4-0.8-6-0.2c-0.2,0-0.3,0.3-0.3,0.5C115.5,70,115.7,70.1,116,70.1C115.9,70,116,70,116,70.1&#xA;&#x9;L116,70.1z"></path>
<path class="st0" d="M121.8,71.5c0.4,0,0.9-0.1,1.3-0.2c0.2,0,0.5,0,0.7,0c0.1,0,0.3,0,0.4,0.1c0.1,0,0,0,0,0l0,0&#xA;&#x9;c0,0,0.1,0.1,0.1,0.1c0,0.1,0,0,0,0.1c0,0,0.1,0.1,0.1,0.1l0.1,0.1c0,0,0,0.1,0,0l0,0c0,0.1,0.1,0.2,0.1,0.3&#xA;&#x9;c0.1,0.4,0.1,0.8,0.1,1.2c0,0.4,0,0.8,0,1.2c0,0.2,0.2,0.4,0.4,0.4s0.4-0.2,0.4-0.4c0.1-0.9,0-1.8-0.2-2.6c-0.1-0.4-0.3-0.8-0.7-1.2&#xA;&#x9;c-0.4-0.3-0.9-0.4-1.4-0.4c-0.6,0-1.2,0.2-1.8,0.2c-0.2,0.1-0.3,0.3-0.3,0.5c0,0,0,0,0,0c0.1,0.2,0.3,0.3,0.5,0.3L121.8,71.5z"></path>
<path class="st0" d="M125.9,73.1h5.6c0.2,0,0.4-0.2,0.4-0.4s-0.2-0.4-0.4-0.4h-5.6c-0.2,0-0.4,0.2-0.4,0.4S125.7,73.1,125.9,73.1z"></path>
<path class="st0" d="M131.5,73.1L131.5,73.1C131.6,73.1,131.7,73.1,131.5,73.1C131.5,73.1,131.6,73.1,131.5,73.1L131.5,73.1h0.1l0,0&#xA;&#x9;l0.1,0.1c0,0,0-0.1,0,0l0,0c0,0,0,0.1,0,0.1c0,0.1,0-0.1,0,0l0,0v0.1v0.1c0,0.1,0-0.1,0,0l0,0c0,0.1,0,0.2,0,0.3c0,0.1,0,0.2,0,0.3&#xA;&#x9;c0,0,0,0.1,0,0.1c0,0.1,0-0.1,0,0v0.3c-0.1,0.2,0.1,0.4,0.3,0.5s0.4-0.1,0.5-0.3c0.1-0.4,0.1-0.8,0-1.3c-0.1-0.5-0.5-0.9-0.9-1&#xA;&#x9;c-0.2-0.1-0.4,0.1-0.5,0.3c-0.1,0.2,0.1,0.4,0.3,0.5L131.5,73.1z"></path>
<path class="st0" d="M104.4,75.4h29.7c0.2,0,0.4-0.2,0.3-0.5c0-0.2-0.2-0.3-0.3-0.3h-29.7c-0.2,0-0.4,0.2-0.3,0.5&#xA;&#x9;C104.1,75.2,104.2,75.3,104.4,75.4z"></path>
<path class="st0" d="M104.4,75c1,0,2-0.3,2.9-0.7c0.9-0.4,1.7-0.9,2.4-1.6c0.2-0.2,0.2-0.4,0-0.6c-0.2-0.2-0.4-0.2-0.6,0l0,0&#xA;&#x9;c-1.3,1.3-3,2-4.8,2c-0.2,0-0.4,0.2-0.3,0.5C104.1,74.8,104.2,74.9,104.4,75z"></path>
<path class="st0" d="M103.5,75L103.5,75L103.5,75c-0.1,0.1-0.2,0.2-0.3,0.3l0.1-0.1c-0.3,0.3-0.5,0.6-0.8,0.9c0,0.1,0,0.2,0,0.3&#xA;&#x9;c0.1,0.2,0.3,0.3,0.5,0.3c0.1,0,0.2-0.1,0.2-0.2l0,0v0.1c0.2-0.2,0.3-0.4,0.5-0.6c0.1-0.1,0.2-0.2,0.3-0.4c0.1-0.1,0.2-0.3,0.2-0.4&#xA;&#x9;c0-0.1,0-0.2,0-0.3c-0.1-0.1-0.1-0.1-0.2-0.2c-0.1,0-0.2,0-0.3,0C103.7,74.8,103.6,74.8,103.5,75L103.5,75z"></path>
<path class="st0" d="M92.6,82.2v3.1c0,0.2,0.2,0.4,0.4,0.4s0.4-0.2,0.4-0.4v-3.1c0-0.2-0.2-0.4-0.4-0.4S92.6,82,92.6,82.2z"></path>
<path class="st0" d="M93.5,82c0.6-0.9,1.4-1.7,2.2-2.4c0.9-0.7,2-1,3.2-0.9c0.5,0,0.5-0.8,0-0.8c-1.3-0.1-2.5,0.3-3.5,1&#xA;&#x9;c-0.9,0.8-1.7,1.6-2.3,2.6c-0.2,0.2-0.2,0.4,0,0.6C93.1,82.2,93.4,82.2,93.5,82L93.5,82z"></path>
<path class="st0" d="M111.7,77.7h2.9c0.2,0,0.4-0.2,0.4-0.4l0,0c0-0.2-0.2-0.4-0.4-0.4h-2.9c-0.2,0-0.4,0.2-0.4,0.4&#xA;&#x9;C111.3,77.5,111.4,77.7,111.7,77.7L111.7,77.7z"></path>
<path class="st0" d="M111.6,80.1h2.1c0.2,0,0.4-0.2,0.4-0.4c0-0.2-0.2-0.4-0.4-0.4l0,0h-2.1c-0.2,0-0.4,0.2-0.4,0.4l0,0&#xA;&#x9;C111.2,79.9,111.4,80.1,111.6,80.1L111.6,80.1z"></path>
<path class="st0" d="M111.5,77.9c0.2,0,0.4-0.2,0.4-0.4s-0.2-0.4-0.4-0.4s-0.4,0.2-0.4,0.4S111.2,77.9,111.5,77.9z"></path>
<path class="st0" d="M110.9,77.6v4.5c0,0.2,0.2,0.4,0.4,0.4c0.2,0,0.4-0.2,0.4-0.4v-4.5c0-0.2-0.2-0.4-0.4-0.4&#xA;&#x9;C111.1,77.2,110.9,77.4,110.9,77.6L110.9,77.6z"></path>
<path class="st0" d="M118.1,77.3c-1.2-0.7-2.2,0.8-2.5,1.7c-0.2,0.5-0.3,1.1-0.1,1.7c0.2,0.7,0.9,1.2,1.6,1.2c0.8,0,1.5-0.5,1.8-1.3&#xA;&#x9;c0.2-0.5-0.6-0.7-0.8-0.2c0,0,0,0.1,0,0.1l0,0c0,0.1-0.1,0.1-0.1,0.2c0,0-0.1,0.1,0,0v0.1l-0.2,0.2c0,0-0.1,0-0.1,0.1h-0.1&#xA;&#x9;c0,0-0.1,0,0,0h-0.2h-0.1c-0.1,0,0,0,0,0h-0.2c-0.1,0,0.1,0,0,0h-0.3h-0.1c0,0-0.1,0,0,0l-0.2-0.1c-0.1-0.1-0.2-0.2-0.2-0.2&#xA;&#x9;l-0.1-0.1l0,0c0-0.1,0,0.1,0,0c0,0,0-0.1,0-0.1c0,0,0-0.2,0-0.1c0-0.1,0-0.2,0-0.3c0-0.1,0-0.1,0-0.2c0,0.1,0-0.1,0-0.1&#xA;&#x9;c0,0,0-0.2,0.1-0.4c0-0.1,0-0.1,0-0.2c0,0,0.1-0.2,0-0.1c0.1-0.1,0.1-0.2,0.2-0.3c0.1-0.1,0.1-0.2,0.2-0.3l0,0c-0.1,0.1,0,0,0,0&#xA;&#x9;c0-0.1,0.1-0.1,0.1-0.1c0,0,0.1-0.1,0.1-0.1l0.1-0.1l0,0l0.1-0.1l0,0c0.1,0-0.1,0,0,0h0.1c-0.1,0,0,0,0.1,0s0,0,0,0h0.1l0,0&#xA;&#x9;c-0.1,0,0,0,0,0c0.2,0.1,0.4,0.1,0.5-0.1s0.1-0.4-0.1-0.5L118.1,77.3z"></path>
<path class="st0" d="M117.4,80.2h1.9c0.2,0,0.4-0.2,0.4-0.4c0-0.2-0.2-0.4-0.4-0.4h-1.9c-0.2,0-0.4,0.2-0.4,0.4l0,0&#xA;&#x9;C117,80,117.1,80.2,117.4,80.2z"></path>
<path class="st0" d="M118.2,80.1c0,0.4,0,0.8,0,1.3c0,0.1,0,0.2,0,0.3c0,0,0,0.1,0,0.1v0.1c0-0.1,0,0,0,0c0,0.2-0.1,0.3-0.1,0.5&#xA;&#x9;c-0.1,0.2,0,0.4,0.2,0.5s0.4,0,0.5-0.2c0,0,0-0.1,0-0.1c0.1-0.4,0.2-0.8,0.2-1.2c0-0.4,0-0.9,0-1.3c0-0.2-0.2-0.4-0.4-0.4&#xA;&#x9;S118.2,79.8,118.2,80.1L118.2,80.1L118.2,80.1z"></path>
<path class="st0" d="M120.9,78.4C120.9,78.4,121,78.3,120.9,78.4L120.9,78.4l0.2-0.1c0,0,0.1,0,0,0h0.1c0,0,0.1,0,0,0&#xA;&#x9;c-0.1,0,0,0,0,0s0.1,0,0,0c-0.1,0,0.1,0,0.1,0s-0.1,0,0,0l0,0l0,0l0.1,0.1c0,0,0-0.1,0,0l0,0v0.1c0,0,0,0.1,0,0.1c0,0,0,0.1,0,0v0.1&#xA;&#x9;c0,0.1,0,0.1,0.1,0.2V79c0,0,0,0,0,0.1c0-0.1,0,0,0,0c0,0.2,0,0.3,0,0.5c0,0,0,0,0,0.1s0-0.1,0,0s0,0.1,0,0.1c0,0.1,0,0.2-0.1,0.3&#xA;&#x9;v0.1c0,0,0,0.1,0,0v0.1c0,0.1-0.1,0.2-0.2,0.3l-0.1,0.1l0,0l-0.1,0.1c-0.1,0.1-0.2,0.2-0.3,0.2c0,0-0.1,0.1,0,0h-0.1l-0.2,0.1&#xA;&#x9;l-0.2,0.1c0,0-0.1,0,0,0h-0.1c-0.2,0.1-0.3,0.3-0.3,0.5c0,0.2,0.2,0.3,0.4,0.3h2.8c0.2,0,0.4-0.2,0.4-0.4s-0.2-0.4-0.4-0.4h-2.6&#xA;&#x9;l0.1,0.8c1-0.4,1.8-1.3,1.9-2.4c0.1-0.7-0.1-1.8-0.8-2.2c-0.5-0.2-1-0.1-1.3,0.3c-0.4,0.3,0.2,0.9,0.6,0.6L120.9,78.4z"></path>
<path class="st0" d="M125.5,77.3c-1.1,0.2-1.4,1.7-1.3,2.6c0,0.6,0.2,1.1,0.6,1.6c0.3,0.4,0.8,0.6,1.3,0.6c0.8-0.1,1.5-0.7,1.7-1.5&#xA;&#x9;c0.3-0.8,0.2-1.7-0.1-2.4c-0.2-0.4-0.5-0.7-0.9-0.9c-0.5-0.2-1-0.1-1.4,0.1c-0.2,0.1-0.2,0.3-0.1,0.5c0.1,0.2,0.4,0.2,0.5,0.1l0,0&#xA;&#x9;l0,0h0.1h0.1h0.1c0,0-0.1,0,0,0h0.2c0.1,0-0.1,0,0,0h0.1c0.1,0,0.1,0,0,0h0.1h0.1c0.1,0,0,0,0,0l0,0l0.1,0.2c-0.1-0.1,0,0,0,0&#xA;&#x9;l0.1,0.1v0.1c0,0,0,0.1,0,0c0,0.1,0.1,0.2,0.1,0.2c0,0.1,0,0.1,0,0.2c0,0,0,0.1,0,0.1c0,0,0-0.1,0,0c0,0,0,0.1,0,0.1&#xA;&#x9;c0,0.2,0,0.3,0,0.5c0,0.1,0,0.2,0,0.2c0-0.1,0,0,0,0.1c0,0,0,0.1,0,0.1l-0.1,0.2v0.1v0.1c0,0,0,0.1,0,0.1c0,0,0,0.1,0,0.1l-0.1,0.2&#xA;&#x9;l0,0c0,0,0-0.1,0,0l0,0.1c0,0,0,0.1-0.1,0.1l0,0c0,0,0.1,0,0,0l-0.2,0.1l0,0c0,0,0.1,0,0,0h-0.1h-0.1c0,0,0.1,0,0,0H126h-0.1h-0.1&#xA;&#x9;l0,0h-0.1l0,0l-0.1-0.1l0,0l0,0l-0.1-0.1l-0.1-0.1l0,0v-0.1c0-0.1-0.1-0.2-0.1-0.4v-0.2c0,0.1,0-0.1,0-0.1c0,0,0-0.3,0-0.4&#xA;&#x9;c0-0.1,0-0.1,0-0.2v-0.1c0-0.1,0,0.1,0,0c0-0.1,0.1-0.2,0.1-0.4c0-0.1,0-0.1,0-0.2c0-0.1,0,0,0,0v-0.1c0-0.1,0-0.1,0.1-0.1v-0.1&#xA;&#x9;l0.1-0.1c0,0,0.1-0.1,0,0s0,0,0,0l0,0c0.1,0,0,0,0,0h0.2c0.2-0.1,0.3-0.3,0.3-0.5c-0.1-0.2-0.3-0.3-0.5-0.3L125.5,77.3z"></path>
<path class="st0" d="M112.6,84.2h18.5c0.2,0,0.4-0.2,0.4-0.4s-0.2-0.4-0.4-0.4h-18.5c-0.2,0-0.4,0.2-0.4,0.4S112.4,84.2,112.6,84.2z&#xA;&#x9;"></path>
<path class="st0" d="M135.3,77c-2.7,1-4,4.5-5,6.9c-1.7,3.6-2.6,7.6-2.6,11.6c0,0.2,0.2,0.4,0.4,0.4c0.2,0,0.4-0.2,0.4-0.4&#xA;&#x9;c0.1-3.7,0.8-7.3,2.3-10.7c0.5-1.3,1.2-2.6,1.8-3.8c0.6-1.3,1.6-2.4,2.9-3.1C136,77.6,135.8,76.9,135.3,77L135.3,77z"></path>
<path class="st0" d="M163.9,74.4v2.3c0,0.2,0.2,0.4,0.4,0.4c0.2,0,0.4-0.2,0.4-0.4v-2.3c0-0.2-0.2-0.4-0.4-0.4l0,0&#xA;&#x9;C164.1,74,163.9,74.2,163.9,74.4z"></path>
<path class="st0" d="M175.3,74.8v2.7c0,0.2,0.2,0.4,0.4,0.4l0,0c0.2,0,0.4-0.2,0.4-0.4l0,0v-2.7c0-0.2-0.2-0.4-0.4-0.3&#xA;&#x9;C175.5,74.4,175.3,74.6,175.3,74.8L175.3,74.8z"></path>
<path class="st0" d="M164.6,74.7c1.9-0.3,3.7-0.5,5.6-0.5c1.7-0.1,3.7-0.2,5.2,0.8c0.4,0.3,0.8-0.4,0.4-0.7c-1.6-1-3.7-0.9-5.4-0.8&#xA;&#x9;c-2,0-4,0.2-6,0.5C163.9,74,164.1,74.7,164.6,74.7L164.6,74.7z"></path>
<path class="st0" d="M166.2,74.6v3c0,0.2,0.2,0.4,0.4,0.4c0.2,0,0.4-0.2,0.4-0.4v-3c0-0.2-0.2-0.4-0.4-0.4&#xA;&#x9;C166.4,74.2,166.2,74.3,166.2,74.6z"></path>
<path class="st0" d="M169,74.3v3.3c0,0.2,0.2,0.4,0.5,0.3c0.2,0,0.3-0.2,0.3-0.3v-3.3c0-0.2-0.2-0.4-0.5-0.3&#xA;&#x9;C169.2,74,169,74.1,169,74.3z"></path>
<path class="st0" d="M171.8,74.4v3c0,0.2,0.2,0.4,0.4,0.4c0.2,0,0.4-0.2,0.4-0.4v-3c0-0.2-0.2-0.4-0.4-0.4&#xA;&#x9;C172,74,171.8,74.2,171.8,74.4L171.8,74.4z"></path>
<path class="st0" d="M162.4,76.3h1.4c0.2,0,0.4-0.2,0.4-0.4s-0.2-0.4-0.4-0.4h-1.4c-0.2,0-0.4,0.2-0.4,0.4l0,0&#xA;&#x9;C162.1,76.2,162.2,76.3,162.4,76.3z"></path>
<path class="st0" d="M163.8,77.5c0.1,0,0.2,0,0.3,0.1h0.1c0,0-0.1,0,0,0l0.1,0.1l0.2,0.2l0.1,0.1h0.1c0.1,0,0,0,0,0&#xA;&#x9;c0.3,0.3,0.7,0.5,1.2,0.7c0.2,0.1,0.4-0.1,0.5-0.3c0,0,0,0,0,0c0.1-0.2-0.1-0.4-0.3-0.5c0,0-0.1,0,0,0l0,0l-0.1-0.1l-0.3-0.2&#xA;&#x9;l-0.2-0.2c0.1,0.1,0,0-0.1,0l-0.2-0.1c-0.3-0.3-0.7-0.5-1.1-0.5c-0.1,0-0.2,0-0.3,0c-0.1,0-0.2,0.1-0.2,0.2&#xA;&#x9;C163.6,77.2,163.7,77.4,163.8,77.5L163.8,77.5z"></path>
<path class="st0" d="M166.1,78.8h9.4c0.2,0,0.4-0.2,0.4-0.4s-0.2-0.4-0.4-0.4h-9.4c-0.2,0-0.4,0.2-0.4,0.4S165.9,78.8,166.1,78.8&#xA;&#x9;L166.1,78.8z"></path>
<path class="st0" d="M175.6,78h-0.7c-0.2,0-0.4,0.2-0.4,0.4c0,0.2,0.2,0.4,0.4,0.4l0,0h2.4c0.2,0,0.4-0.2,0.4-0.4l0,0&#xA;&#x9;c0-0.2-0.2-0.4-0.4-0.4l0,0l0,0c-0.2,0-0.4,0.2-0.4,0.4c0,0.2,0.2,0.4,0.4,0.4l0,0h1.1c0.2,0,0.4-0.2,0.4-0.4c0-0.2-0.2-0.4-0.4-0.4&#xA;&#x9;h-1.1c-0.2,0-0.4,0.2-0.4,0.4c0,0.2,0.2,0.4,0.4,0.4l0,0l0,0c0.2,0,0.4-0.2,0.4-0.4l0,0c0-0.2-0.2-0.4-0.4-0.4l0,0h-2.4&#xA;&#x9;c-0.2,0-0.4,0.2-0.4,0.4c0,0.2,0.2,0.4,0.4,0.4l0,0h0.7c0.2,0,0.4-0.2,0.4-0.4l0,0C176,78.2,175.8,78,175.6,78z"></path>
<path class="st0" d="M178.2,78.8c2,0.4,1.9,3.6,1.9,5.2c0,2.1-0.4,4.2-0.3,6.2c0,0.5,0.8,0.5,0.8,0c-0.1-2.3,0.4-4.6,0.3-6.9&#xA;&#x9;c0-1.8-0.3-4.8-2.5-5.3C177.9,77.9,177.7,78.7,178.2,78.8z"></path>
<path class="st0" d="M174.7,84.6h5.1c0.2,0,0.4-0.2,0.4-0.4s-0.2-0.4-0.4-0.4h-5.1c-0.2,0-0.4,0.2-0.4,0.4S174.5,84.6,174.7,84.6z"></path>
<path class="st0" d="M181.3,82.9c1.5-0.5,3.2,0.3,4.5,1.1c1.3,0.8,2.5,1.9,3.4,3.2c0.3,0.4,0.9,0,0.7-0.4c-1-1.4-2.2-2.6-3.7-3.5&#xA;&#x9;c-1.4-0.9-3.3-1.7-5-1.1C180.6,82.4,180.8,83.1,181.3,82.9L181.3,82.9z"></path>
<path class="st0" d="M181.6,85.6c2.8-0.1,5.6,0.8,7.9,2.4c0.4,0.3,0.8-0.4,0.4-0.7c-2.4-1.7-5.3-2.6-8.3-2.5&#xA;&#x9;C181.1,84.8,181.1,85.6,181.6,85.6z"></path>
<path class="st0" d="M183.4,95c1.1-0.1,2.2-0.2,3.3-0.1c0.2,0,0.4-0.2,0.4-0.4c0-0.2-0.2-0.4-0.4-0.4c-1.1,0-2.2,0-3.3,0.1&#xA;&#x9;c-0.2,0-0.4,0.2-0.4,0.4S183.2,95,183.4,95L183.4,95z"></path>
<path class="st0" d="M172.6,43.3c-7.8-2.2-16.4,1.9-23.4,5.1c-3.7,1.7-7.2,3.7-10.5,6c-3,1.9-5.5,4.6-7.3,7.6&#xA;&#x9;c-0.2,0.4,0.4,0.8,0.7,0.4c1.8-3.1,4.3-5.7,7.4-7.6c3.1-2.2,6.5-4,9.9-5.6c3.3-1.6,6.7-3,10.2-4.2c4.1-1.3,8.7-2.2,12.9-1&#xA;&#x9;c0.2,0,0.4-0.1,0.4-0.3C172.9,43.5,172.8,43.3,172.6,43.3L172.6,43.3z"></path>
<path class="st0" d="M175.3,44.3c2.3,6.3,7.4,10.4,11.5,15.4c2.5,2.8,4.1,6.3,4.7,10c0.3,2.6-0.4,5.9,1.5,8c0.3,0.4,0.9-0.2,0.6-0.6&#xA;&#x9;c-1.2-1.3-1.1-3.3-1.1-4.9c0-1.4-0.1-2.7-0.4-4.1c-0.7-3.1-2.2-6-4.2-8.4c-4.1-5.2-9.4-9.3-11.7-15.7&#xA;&#x9;C175.9,43.6,175.1,43.8,175.3,44.3L175.3,44.3z"></path>
<path class="st0" d="M180.1,13c-3.1-2.7-6.8-4.5-10.8-5.4c-4.3-0.7-8.6-1-12.9-0.8c-8.4-0.2-16.7,1.9-24.1,6&#xA;&#x9;c-8,4.8-15.1,10.8-21.1,18c-3.2,3.7-6.1,7.7-8.8,11.8c-2.8,4.1-5.1,8.4-7.1,12.9c-2.2,5.4-3.4,11.2-4.7,17c-0.9,5-2.3,10-4.1,14.8&#xA;&#x9;c-0.2,0.5,0.5,0.9,0.7,0.4c3.5-8.3,4.4-17.5,6.9-26.1c2.8-9.4,8.2-18,14.2-25.8c5.7-7.6,12.7-14.2,20.5-19.7&#xA;&#x9;c6.7-4.8,14.6-7.6,22.9-8.3c4.9-0.4,9.8-0.3,14.6,0.2c4.9,0.4,9.6,2.4,13.4,5.6C180,13.9,180.5,13.3,180.1,13L180.1,13z"></path>
<path class="st0" d="M80,111.8c-2.2,3.6-4,7.3-6.4,10.7c-1.8,2.7-3.5,5.5-4.9,8.4c-1.6,3.1-3.1,6.2-4.9,9.1c-1.6,2.6-3.4,5.3-6,7&#xA;&#x9;c-0.4,0.3,0,1,0.4,0.7c2.3-1.6,4.2-3.7,5.6-6.2c1.9-3.1,3.6-6.3,5.2-9.5c1.4-2.9,3-5.8,4.8-8.5c2.6-3.6,4.6-7.5,6.9-11.3&#xA;&#x9;c0.1-0.2,0-0.4-0.2-0.5C80.3,111.6,80.1,111.7,80,111.8L80,111.8z"></path>
<path class="st0" d="M179.9,14.5c1.6-0.2,3.1-0.6,4.7-0.7c1.5-0.1,3.1,0.4,4.4,1.2c0.2,0.1,0.4,0.1,0.5-0.1c0.1-0.2,0.1-0.4-0.1-0.5&#xA;&#x9;c-1.3-0.9-2.9-1.4-4.5-1.3c-1.7,0.1-3.3,0.5-4.9,0.7C179.4,13.7,179.4,14.5,179.9,14.5L179.9,14.5z"></path>
<path class="st0" d="M112.6,63.1c-1-1.4-2.7-2.1-4.4-1.6c-1.7,0.4-3.1,1.5-3.9,3.1c-0.5,0.9-0.7,1.9-0.7,3c0,0.5,0.8,0.5,0.8,0&#xA;&#x9;c-0.1-2,1-3.8,2.7-4.8c1.5-1,3.6-0.7,4.7,0.8C112.2,63.9,112.9,63.5,112.6,63.1L112.6,63.1z"></path>
<path class="st0" d="M178.4,17.5c0,4.6-1.6,9-1.4,13.6c0.2,3.8,0.7,8.2-2.8,10.7c-0.4,0.3,0,1,0.4,0.7c3.4-2.4,3.5-6.3,3.3-10.1&#xA;&#x9;c-0.1-2.2,0-4.5,0.3-6.7c0.6-2.7,1-5.4,1.1-8.2c0-0.2-0.2-0.4-0.4-0.4C178.6,17.1,178.5,17.2,178.4,17.5L178.4,17.5L178.4,17.5z"></path>
<path class="st0" d="M119.5,150.8c3.4,0.9,6.5,2.7,9.5,4.4c3.2,1.8,6.6,3.4,10.1,4.7c0.5,0.2,0.7-0.6,0.2-0.8&#xA;&#x9;c-3.6-1.4-7.1-3-10.4-4.9c-3-1.5-6-3.3-9.2-4.1C119.2,149.9,119,150.7,119.5,150.8L119.5,150.8z"></path>
<path class="st0" d="M139.6,159.6c-0.7,0.7-1.2,1.6-1.4,2.6c-0.1,0.8,0.4,1.6,1.1,1.9c0.6,0.2,1.2,0,1.6-0.5&#xA;&#x9;c0.5-0.4,0.8-1.1,0.8-1.7c0-0.9-0.5-1.7-1.3-2.2c-0.2-0.1-0.4-0.1-0.5,0.1c-0.1,0.2-0.1,0.4,0.1,0.5l0.3,0.2l0,0l0,0&#xA;&#x9;c0,0,0.1,0.1,0.1,0.1l0.2,0.2l0,0l0.1,0.1c0,0.1,0.1,0.1,0.1,0.2l0.1,0.1c0-0.1,0,0,0,0.1c0,0.1,0,0.1,0.1,0.2c0.1,0.1,0,0.1,0,0.1&#xA;&#x9;s0,0.1,0,0c0,0,0,0,0,0.1v0.3l0,0c0,0.1,0-0.1,0,0c0,0.1,0,0.3-0.1,0.4v0.1c0,0,0-0.1,0,0c0,0.1,0,0,0,0l-0.1,0.2l-0.1,0.2l0,0&#xA;&#x9;l-0.1,0.1c-0.1,0.1-0.2,0.2-0.3,0.3c0.1,0,0,0,0,0h-0.1l-0.2,0.1c-0.1,0,0,0,0,0h-0.1h-0.2c0,0,0.1,0,0,0h-0.2h-0.2c-0.1,0,0,0,0,0&#xA;&#x9;h-0.1h-0.1c0,0,0.1,0.1,0,0l-0.1-0.1l0,0l0,0l-0.1-0.1c0-0.1-0.1-0.1-0.1-0.2l0,0l0,0v-0.1c0,0,0-0.1,0-0.1c0,0,0,0,0-0.1&#xA;&#x9;c0,0.1,0,0,0,0v-0.2c0,0,0,0,0-0.1c0-0.1,0,0,0,0c0-0.1,0-0.2,0.1-0.3c0.1-0.2,0.2-0.4,0.3-0.6c0.2-0.4,0.5-0.7,0.8-1&#xA;&#x9;c0.2-0.2,0.2-0.4,0-0.6C140,159.4,139.8,159.4,139.6,159.6L139.6,159.6z"></path>
<path class="st0" d="M140.2,160.4c4.6-1.1,10.1-2.4,13.1-6.5c0.3-0.4-0.4-0.8-0.7-0.4c-2.8,3.9-8.1,5.1-12.5,6.1&#xA;&#x9;C139.5,159.8,139.7,160.5,140.2,160.4L140.2,160.4z"></path>
<path class="st0" d="M121.1,159c3.4,0.7,6.3,3,9.1,4.8c2.8,1.8,5.7,3.5,9.2,3.8c6.7,0.7,12.5-3.8,16.5-8.7c0.3-0.4-0.2-0.9-0.6-0.6&#xA;&#x9;c-4.1,5.1-10.1,9.7-17.1,8.3c-6.4-1.2-10.6-7.1-16.9-8.4C120.8,158.2,120.6,159,121.1,159L121.1,159z"></path>
<path class="st0" d="M86.3,166.7c-2.2-1.1-4.9,0-7,1c-2.3,1.1-4.4,2.7-6.1,4.6c-0.3,0.4,0.2,0.9,0.6,0.6c1.5-1.8,3.4-3.2,5.4-4.2&#xA;&#x9;c1.8-1,4.6-2.2,6.6-1.2C86.3,167.6,86.7,166.9,86.3,166.7L86.3,166.7z"></path>
<path class="st0" d="M80,172.1c4.9-3.2,10.7,0.3,15.3,2.2c2.2,0.9,4.6,1.3,7,1.1c3.2-0.3,6-1.8,9.2-0.4c0.5,0.2,0.9-0.5,0.4-0.7&#xA;&#x9;c-2.7-1.3-5.2-0.6-8,0c-3.2,0.6-6.5,0.2-9.4-1.2c-4.5-2-10.2-4.7-14.9-1.7C79.2,171.7,79.6,172.4,80,172.1L80,172.1z"></path>
<path class="st0" d="M107.3,170.8c2,0.1,3.9,1.3,5.6,2.4c1.3,0.7,2.4,1.8,3.1,3.1c1,2.4-0.4,5.2-1.3,7.4c-1.5,4-2.7,8.1-3.6,12.2&#xA;&#x9;c-0.8,4.2-1.1,8.4-1,12.7c0.1,5.2,0,10.3-3.4,14.5c-0.3,0.4,0.2,0.9,0.6,0.6c2.9-3.5,3.6-7.6,3.7-12c0-2.5-0.1-4.9,0-7.4&#xA;&#x9;c0.1-2.6,0.4-5.2,0.9-7.8c1-4.6,2.3-9.1,4-13.4c0.8-2.2,1.9-4.9,0.7-7.2c-0.8-1.4-1.9-2.5-3.3-3.3c-1.9-1.1-3.8-2.4-6-2.5&#xA;&#x9;c-0.5,0-0.5,0.8,0,0.8L107.3,170.8z"></path>
<path class="st0" d="M72.9,173c-0.3,4.2,0.6,8.5,1,12.7c0.3,3.8,0.9,9.2-1.9,12.2c-0.2,0.2-0.2,0.4,0,0.6c0.2,0.2,0.4,0.2,0.6,0&#xA;&#x9;c2.8-3,2.5-8,2.2-11.8c-0.3-4.5-1.4-9.1-1.1-13.7C73.6,172.5,72.9,172.5,72.9,173z"></path>
<path class="st0" d="M73.1,196c-5.6-0.8-7.6,4.8-9.3,9.1c-1.1,3-2.3,6-3.6,8.8c-0.7,1.6-1.6,3.1-2.7,4.5c-1.3,1.4-2.7,2.7-4.1,3.9&#xA;&#x9;c-2.9,2.6-6,6-6.2,10.1c0,0.2,0.2,0.4,0.4,0.4c0.2,0,0.4-0.2,0.4-0.4l0,0c0.1-4.9,4.6-8.4,7.9-11.3c3-2.6,4.6-6,6.1-9.6&#xA;&#x9;c1.2-3.1,2.4-6.3,3.8-9.4c1.3-3.1,3.4-6,7.1-5.4C73.4,196.9,73.6,196.1,73.1,196L73.1,196z"></path>
<path class="st0" d="M71.2,199.1c2.8-0.1,4.2,1.6,5.5,3.9c1.5,2.5,2.9,5,4.5,7.4c1.7,2.7,3.5,5.3,5.3,7.8c2.5,4,6.6,6.7,11.2,7.7&#xA;&#x9;c1.7,0.5,3.5,0.7,5.3,0.6c3.3-0.5,6.4-1.8,9-3.8c1.2-0.8,2-2,2.3-3.3c0.2-1.7-1.2-2.8-2.5-3.5c-0.4-0.2-0.8,0.5-0.4,0.7&#xA;&#x9;c1.4,0.7,2.7,1.9,1.9,3.6c-0.8,1.2-1.9,2.2-3.2,2.9c-2.3,1.4-5.4,2.9-8.2,2.7c-4.7-0.1-9.1-2-12.5-5.2c-1.8-2-3.4-4.2-4.8-6.5&#xA;&#x9;c-1.6-2.4-3.2-4.9-4.7-7.3c-2.2-3.5-3.8-8.6-8.7-8.4C70.6,198.3,70.6,199.1,71.2,199.1L71.2,199.1z"></path>
<path class="st0" d="M110.6,213.5c2.4,0.8,4.7,1.8,6.8,3.2c2.4,1.3,4.1,3.6,4.5,6.3c0.2,2.6-0.1,5.2-0.9,7.7c-0.8,3.2-1.5,6.3-2,9.5&#xA;&#x9;c-1.2,6.7-2.1,13.6-4,20.2c-1.6,5.4-3.7,10.9-8.7,14c-4.5,2.8-10,3.4-15,4.6c-0.5,0.1-0.3,0.9,0.2,0.8c4.8-1.2,9.9-1.8,14.3-4.2&#xA;&#x9;c5-2.7,7.6-7.4,9.3-12.6c2.4-7.2,3.4-14.7,4.6-22.1c0.6-3.4,1.3-6.7,2.1-10c0.8-2.6,1.1-5.3,0.9-8c-0.3-2.6-1.8-5-4-6.4&#xA;&#x9;c-2.4-1.6-5-2.9-7.8-3.8c-0.2,0-0.4,0.1-0.4,0.3C110.3,213.3,110.4,213.4,110.6,213.5L110.6,213.5z"></path>
<path class="st0" d="M46.9,232.3c0.2,1.9,0.7,3.8,1.1,5.7c0.5,2.5-0.2,4.6-0.6,7c-0.4,1.6-0.2,3.3,0.7,4.8c1.1,1.4,2.4,2.6,3.9,3.6&#xA;&#x9;c1.6,1.4,3,3,4,4.9c1,1.9,1.8,3.8,2.9,5.6c2,3.3,4.7,6.1,7.9,8.2c0.4,0.3,0.8-0.4,0.4-0.7c-3.3-2.2-6.1-5.1-8.1-8.6&#xA;&#x9;c-1.9-3.3-3.1-6.8-6-9.4c-1.4-1.2-3.1-2.2-4.2-3.7c-1.4-1.9-0.9-4-0.4-6.2c0.5-1.7,0.6-3.5,0.3-5.3c-0.3-2-0.9-4-1.1-6&#xA;&#x9;C47.8,231.8,46.9,231.8,46.9,232.3L46.9,232.3z"></path>
<path class="st0" d="M113.7,266c-0.3,6.5-3.3,12.3-6.3,18c-2.4,4.4-4.3,9-5.7,13.7c-1.1,4.3-2.4,8.5-3.9,12.6&#xA;&#x9;c-1.6,3.9-3.8,7.9-7.6,10c-3.5,1.9-8.3,1.6-12.2,1.5c-4.7,0-9.4-0.7-14-2.1c-4.2-1.4-8.6-3.9-10.2-8.3c-0.8-2.3-1.3-4.4-3.1-6.2&#xA;&#x9;c-2.3-2.3-4.9-4.4-6.9-6.9c-2.1-2.5-4.5-5.2-6.7-7.9c-2.2-2.7-4.4-5.8-5.1-9.3c-1.4-7.4,1.3-14.9,0.9-22.4c0-0.5-0.8-0.5-0.8,0&#xA;&#x9;c0.4,6.9-1.9,13.7-1.1,20.7c0.7,6.4,4.9,11,9,15.6c2.2,2.5,4.2,5.1,6.6,7.4c1.3,1.2,2.6,2.3,3.8,3.6c1,1.1,1.8,2.5,2.2,4&#xA;&#x9;c0.6,2.2,1.6,4.1,3.1,5.8c1.5,1.5,3.2,2.7,5.2,3.6c4.3,1.9,9,2.9,13.7,3.2c4.4,0.5,8.7,0.4,13.1-0.4c8.8-1.9,11.7-12.7,13.8-20.1&#xA;&#x9;c0.7-2.4,1.3-4.8,2-7.1c1.1-3,2.4-6,3.9-8.8c3.3-6.3,6.9-12.7,7.2-20c0-0.2-0.2-0.4-0.4-0.4S113.7,265.8,113.7,266L113.7,266z"></path>
<path class="st0" d="M86.3,133c-4.4,1.5-8.6,3.4-12.7,5.6c-1.9,1-3.7,2-5.6,2.9c-0.9,0.3-1.6,0.9-2.1,1.7c-0.6,1.5-0.9,3.1-0.9,4.7&#xA;&#x9;c-0.2,2.3-0.4,4.6-0.5,6.8c-0.3,2.9,0.6,5.9,2.3,8.2c1.5,1.8,3.1,3.4,4.8,4.9c1.9,1.8,4,3.4,6.3,4.6c0.5,0.2,0.8-0.4,0.4-0.7&#xA;&#x9;c-3.7-2.1-7.1-4.8-9.9-8c-2.1-2.1-3.3-5-3.3-8c0-1.8,0.3-3.6,0.4-5.4c0-2,0.2-4.1,0.7-6.1c0.3-1,1.1-1.7,2-2&#xA;&#x9;c1.6-0.8,3.2-1.6,4.8-2.4c4.3-2.3,8.8-4.3,13.4-5.9C86.9,133.6,86.7,132.8,86.3,133L86.3,133z"></path>
<path class="st0" d="M86.2,160.1c-0.8,2.1-2.7,3.7-4.4,5.1c-1.7,1.4-3.8,2.7-5.6,4.1c-0.4,0.3,0,1,0.4,0.7c2-1.5,4-2.8,5.9-4.4&#xA;&#x9;c1.9-1.4,3.5-3.2,4.5-5.3C87.2,159.8,86.4,159.6,86.2,160.1L86.2,160.1z"></path>
<path class="st0" d="M72.7,174.4c-2.3,3.3-7.2,5-6.5,9.8c0.7,4.5,4.8,7.4,6.7,11.3c0.2,0.4,0.9,0,0.7-0.4c-1.8-3.7-5.7-6.5-6.5-10.6&#xA;&#x9;c-1-4.6,4.1-6.5,6.3-9.7C73.6,174.4,73,174,72.7,174.4L72.7,174.4z"></path>
<path class="st0" d="M66,143.5c-2.5,2.9-6.9,3.9-10.5,4.8c-3.9,0.9-7.7,2.1-11.4,3.7c-7.2,3.4-13.1,9-16.9,16&#xA;&#x9;c-2.6,4.2-4.4,8.9-5.5,13.7c-1,4.9-1.2,10-0.5,15c0.3,2.6,1,5.2,0.9,7.8c-0.3,2.7-0.9,5.3-1.8,7.8c-0.8,2.4-1.4,4.9-1.6,7.4&#xA;&#x9;c-0.1,2.7,0.1,5.3,0.5,8c0.4,2.8,0.6,5.6,0.5,8.4c-0.1,2.2-0.2,4.5-0.1,6.7c0.1,4,0.7,8.6,3.7,11.5c0.2,0.2,0.4,0.2,0.6,0&#xA;&#x9;c0.2-0.2,0.2-0.4,0-0.6c-3-2.9-3.4-7.3-3.5-11.2c-0.1-4.2,0.3-8.3-0.1-12.5c-0.3-2.6-0.8-5.2-0.8-7.9c-0.1-2.7,0.3-5.3,1.1-7.9&#xA;&#x9;c0.7-2.4,1.5-4.8,2-7.3c0.4-2.2,0.4-4.4,0-6.6c-1.8-10.5-0.8-20.9,4.4-30.4c3.9-7.1,9.1-13.1,16.4-16.8c4.1-1.9,8.3-3.3,12.7-4.3&#xA;&#x9;c3.6-0.9,7.9-1.9,10.5-4.9C66.8,143.7,66.3,143.1,66,143.5L66,143.5z"></path>
<path class="st0" d="M22.6,245.2c1.2,7.1-3.9,13.6-2,20.7c1.5,6,6.7,10.2,10.2,15c0.3,0.4,1,0,0.7-0.4c-3.5-4.8-8.8-9.1-10.2-15.2&#xA;&#x9;c-1.6-7,3.3-13.4,2.1-20.4C23.3,244.5,22.5,244.7,22.6,245.2L22.6,245.2z"></path>
<path class="st0" d="M47.6,242.1c-2.1,0.2-4.2,0.9-5.9,2.2c-1.8,1.2-3.5,2.5-5.1,4c-0.4,0.3,0.2,0.9,0.6,0.6&#xA;&#x9;c1.5-1.4,3.1-2.7,4.8-3.8c1.6-1.2,3.6-1.9,5.6-2.1c0.2,0,0.4-0.2,0.4-0.4C48,242.3,47.8,242.1,47.6,242.1L47.6,242.1z"></path>
<path class="st0" d="M54.5,184.7c2.3-0.4,4.8-0.2,7,0.6c2.3,0.7,4.4,1.8,6.3,3.3c0.4,0.3,0.8-0.4,0.4-0.7c-2-1.5-4.3-2.7-6.7-3.4&#xA;&#x9;c-2.3-0.8-4.8-1-7.2-0.6C53.8,184.1,54,184.8,54.5,184.7L54.5,184.7z"></path>
<path class="st0" d="M57.8,177.6c1.8,0,3.3,1.3,4.6,2.3c1.3,1.1,2.6,2.5,4,3.6c0.4,0.3,1-0.2,0.6-0.6c-1.5-1.2-2.8-2.6-4.4-3.8&#xA;&#x9;c-1.3-1.3-3-2.1-4.9-2.3c-0.2,0-0.4,0.2-0.4,0.4C57.4,177.5,57.5,177.6,57.8,177.6L57.8,177.6z"></path>
<path class="st0" d="M111.4,136.2c0.6,2.1,1.5,4.1,2.9,5.9c1.5,2.1,2.7,4.3,3.7,6.7c1.9,4.7,2.7,9.7,4.2,14.5&#xA;&#x9;c1.4,4.8,3.4,9.6,5.2,14.3c1.9,4.9,3.5,9.8,4.8,14.8c1.4,5.3,3,10.6,5.7,15.4c0.1,0.2,0.4,0.2,0.5,0.1c0.2-0.1,0.2-0.3,0.1-0.5&#xA;&#x9;c-2.4-4.4-4.2-9.2-5.3-14.1c-1.4-4.9-2.8-9.8-4.6-14.6c-1.8-4.8-3.7-9.3-5.2-14.1c-1.5-4.8-2.3-9.8-4.1-14.6c-0.8-2.5-2-4.8-3.4-7&#xA;&#x9;c-1.5-2.2-3.3-4.4-3.8-7.1C112.1,135.5,111.3,135.7,111.4,136.2L111.4,136.2z"></path>
<path class="st0" d="M137.6,207.6c4.5,6.1,8.5,12.6,13.7,18.2c0.3,0.4,0.9-0.2,0.6-0.6c-5.2-5.4-9.1-12-13.6-18&#xA;&#x9;C138,206.8,137.3,207.2,137.6,207.6L137.6,207.6z"></path>
<path class="st0" d="M152.1,225.3c6.3-8.9,8.7-19.5,8.4-30.3c-0.3-11.2-2.9-22.3-5.1-33.2c-0.6-3.1-1.2-6.2-1.7-9.4&#xA;&#x9;c-0.3-1.7-0.6-3.3-0.7-5c-0.1-2,1.6-3.4,3-4.6c0.4-0.3-0.2-0.9-0.6-0.6c-1,0.8-1.9,1.7-2.6,2.7c-0.6,1-0.8,2.2-0.5,3.3&#xA;&#x9;c0.3,2.7,0.8,5.4,1.3,8.1c1,5.7,2.2,11.4,3.3,17c2.2,11.1,4,22.6,1.9,33.9c-1.2,6.3-3.7,12.4-7.4,17.6&#xA;&#x9;C151.1,225.2,151.8,225.6,152.1,225.3L152.1,225.3z"></path>
<path class="st0" d="M107.1,151.1c2.6-2.3,5.8-4.4,9.4-4.4c0.2,0,0.4-0.2,0.4-0.4c0-0.2-0.2-0.4-0.4-0.4l0,0c-3.8,0-7.2,2.1-10,4.6&#xA;&#x9;C106.2,150.8,106.7,151.4,107.1,151.1L107.1,151.1z"></path>
<path class="st0" d="M151.6,225.5c5.2,3.1,6.8,10,7.3,15.7c0.6,7.5-1.9,14.9-1.4,22.4c0.4,4,1,7.9,1.8,11.8&#xA;&#x9;c0.8,4.3,1.3,8.6,1.8,12.9c1.2,8.3,1.8,16.6,1.8,25c-0.1,3.1-0.4,6.1-0.8,9.1c-0.4,3.4-0.4,6.9-0.2,10.3c0,0.5,0.8,0.5,0.8,0&#xA;&#x9;c-0.3-3.2-0.3-6.5,0.1-9.7c0.3-2.7,0.7-5.3,0.8-8c0.4-8.5-0.6-17.2-1.6-25.6c-0.5-4.2-1-8.5-1.7-12.6c-0.7-4.2-1.7-8.4-2-12.6&#xA;&#x9;c-0.6-7.8,2-15.3,1.3-23.1c-0.5-5.9-2.2-12.9-7.6-16.2c-0.2-0.1-0.4,0-0.5,0.2C151.5,225.2,151.6,225.4,151.6,225.5L151.6,225.5z"></path>
<path class="st0" d="M144.4,255.7c-1.5,0.2-2.9,1.1-3.5,2.5c-0.6,1.3-0.6,2.8-0.1,4.2c0.9,3.3,4,5.6,7.4,5.4&#xA;&#x9;c2.9-0.2,5.6-1.9,5.9-4.9c0.2-2.7-1-5.2-3.1-6.9c-1.1-0.9-2.5-1.4-3.9-1.4c-1.7,0.2-3.2,1-4.4,2.3c-0.3,0.4,0.2,0.9,0.6,0.6&#xA;&#x9;c0.9-1.1,2.1-1.8,3.5-2c1.1-0.1,2.2,0.1,3.1,0.7c1.9,1.2,3.2,3.3,3.4,5.6c0.1,1.1-0.1,2.2-0.7,3.1c-0.8,1-1.9,1.7-3.1,2&#xA;&#x9;c-3,0.8-6.2-0.7-7.5-3.5c-0.7-1.3-0.9-2.8-0.6-4.2c0.5-1.4,1.7-2.4,3.2-2.6C145.1,256.4,144.9,255.7,144.4,255.7L144.4,255.7z"></path>
<path class="st0" d="M143.8,309.4c-3,1.3-3.9,4.7-2.7,7.6c1.1,3.1,4.3,5.1,7.6,4.8c3-0.4,5.6-2.4,6-5.5c0.2-2.6-0.9-5.2-2.9-6.9&#xA;&#x9;c-2.2-2.1-5.7-2-7.8,0.2c-0.1,0.1-0.1,0.1-0.2,0.2c-0.2,0.2-0.2,0.4,0,0.6c0.2,0.2,0.4,0.2,0.6,0l0,0c0.9-0.9,2-1.5,3.3-1.7&#xA;&#x9;c1.1-0.1,2.3,0.2,3.2,0.9c1.9,1.3,3.1,3.4,3.3,5.7c0.1,2.5-1.5,4.8-4,5.4c-3.5,1.1-7.2-0.8-8.3-4.3c-0.3-1-0.4-2-0.2-2.9&#xA;&#x9;c0.3-1.5,1.4-2.7,2.8-3.3C144.6,310,144.3,309.3,143.8,309.4L143.8,309.4z"></path>
<path class="st0" d="M147.2,312c-1.2-0.5-2.6,0-3.3,1.1c-1,1.5-0.5,3.5,1,4.5c0.3,0.2,0.6,0.3,1,0.4c0.5,0.2,0.7-0.6,0.2-0.8&#xA;&#x9;c-0.5-0.1-1-0.5-1.4-0.9c-0.3-0.4-0.5-0.9-0.5-1.3c-0.1-0.9,0.3-1.8,1.1-2.3c0.5-0.2,1.1-0.2,1.6,0&#xA;&#x9;C147.5,312.9,147.7,312.2,147.2,312L147.2,312z"></path>
<path class="st0" d="M146.3,315.1c0.2,0,0.4-0.2,0.4-0.4s-0.2-0.4-0.4-0.4c-0.2,0-0.4,0.2-0.4,0.4S146.1,315.1,146.3,315.1z"></path>
<path class="st0" d="M148.7,315.7c0.2,0,0.4-0.2,0.4-0.4c0-0.2-0.2-0.4-0.4-0.4c-0.2,0-0.4,0.2-0.4,0.4&#xA;&#x9;C148.3,315.5,148.5,315.7,148.7,315.7L148.7,315.7z"></path>
<path class="st0" d="M145.7,259.1c-0.8,0.3-1.5,1-1.7,1.9c-0.2,0.8,0.1,1.7,0.7,2.3c0.4,0.4,0.8,0.6,1.3,0.8&#xA;&#x9;c0.2,0.1,0.4-0.1,0.5-0.3c0.1-0.2-0.1-0.4-0.3-0.5l0,0c-0.4-0.1-0.8-0.3-1.1-0.7c-0.2-0.3-0.3-0.6-0.4-0.9c0-0.4,0-0.8,0.2-1.1&#xA;&#x9;c0.2-0.4,0.5-0.6,0.9-0.8c0.2-0.1,0.3-0.3,0.3-0.5C146.1,259.1,145.9,259,145.7,259.1L145.7,259.1z"></path>
<path class="st0" d="M146.7,261.6v-0.3c0-0.1,0-0.1,0-0.2c0-0.1,0-0.1-0.1-0.1c0,0-0.1-0.1-0.1-0.1c0,0-0.1,0-0.2,0h-0.1&#xA;&#x9;c-0.1,0-0.1,0.1-0.2,0.1l-0.1,0.1c0,0.1-0.1,0.1-0.1,0.2v0.3c0,0.1,0,0.1,0,0.2c0,0.1,0.1,0.2,0.2,0.2c0.1,0,0.1,0,0.2,0h0.1&#xA;&#x9;c0.1,0,0.1,0,0.2-0.1l0.1-0.1C146.7,261.7,146.7,261.7,146.7,261.6L146.7,261.6z"></path>
<path class="st0" d="M149,262.5c0.2,0,0.4-0.2,0.4-0.4s-0.2-0.4-0.4-0.4c-0.2,0-0.4,0.2-0.4,0.4S148.7,262.5,149,262.5z"></path>
<path class="st0" d="M139.8,260.1h-4.5c-0.2,0-0.4,0.2-0.4,0.4v1.3c0,0.2,0.1,0.3,0.3,0.4c1.9,0.4,3.8,0.6,5.6,0.5&#xA;&#x9;c0.2,0,0.4-0.2,0.4-0.4c0-0.2-0.2-0.4-0.4-0.4c-1.8,0.1-3.7-0.1-5.4-0.5l0.3,0.4v-1.3l-0.4,0.4h4.5c0.2,0,0.4-0.2,0.3-0.5&#xA;&#x9;C140.1,260.3,139.9,260.2,139.8,260.1L139.8,260.1z"></path>
<path class="st0" d="M140.1,313.8h-5c-0.2,0-0.4,0.2-0.4,0.4c0.3,2.8,3.7,2.5,5.7,2.2c0.2-0.1,0.3-0.3,0.3-0.5&#xA;&#x9;c-0.1-0.2-0.3-0.3-0.5-0.3c-1.4,0.2-4.5,0.6-4.7-1.4l-0.4,0.4h5c0.2,0,0.4-0.2,0.4-0.4C140.4,314,140.3,313.8,140.1,313.8&#xA;&#x9;L140.1,313.8z"></path>
<path class="st0" d="M123.2,226.8c1.8,0.5,3.2,1.9,4.7,3c1.5,1.1,3,2,4.7,2.7c3.2,1.3,6.5,2.1,9.9,2.6c5.3,0.7,13,0.8,16.3,5.7&#xA;&#x9;c0.3,0.4,1,0,0.7-0.4c-3.3-4.8-10.3-5.3-15.6-5.9c-3.6-0.4-7.2-1.2-10.6-2.5c-1.9-0.8-3.7-1.8-5.3-3c-1.3-1.2-2.9-2.2-4.6-2.8&#xA;&#x9;c-0.2,0-0.4,0.1-0.4,0.3C122.9,226.6,123,226.8,123.2,226.8L123.2,226.8z"></path>
<path class="st0" d="M159.5,237.7c3.1-4.9,9-7.4,13.9-10.2s9.6-6.2,11.3-11.8c0.1-0.2-0.1-0.4-0.3-0.5c-0.2-0.1-0.4,0.1-0.5,0.3&#xA;&#x9;c-3.6,11.8-19,12.2-25.1,21.9C158.6,237.7,159.2,238.1,159.5,237.7z"></path>
<path class="st0" d="M51.1,307.7c0.1,3.6-0.1,7.3-0.5,10.9c-0.5,3.5-1.4,6.9-2.1,10.4c-0.1,0.5,0.7,0.7,0.8,0.2&#xA;&#x9;c0.7-3.5,1.6-7,2.1-10.6c0.4-3.6,0.6-7.2,0.5-10.9c0-0.2-0.2-0.4-0.4-0.4S51.1,307.5,51.1,307.7L51.1,307.7z"></path>
<path class="st0" d="M187.4,175.2c2.7-1.3,5.7-0.3,8.5-0.1c2.6,0.2,5.3-0.4,7.5-2c1.3-0.9,2.6-1.9,3.9-2.8c1.3-0.9,2.6-1.5,3.9-2.3&#xA;&#x9;c2.5-1.4,4.5-3.4,5.9-5.8c0.2-0.4-0.4-0.8-0.7-0.4c-1.5,2.6-3.8,4.8-6.6,6.1c-2.7,1.5-5,3.5-7.6,5c-1.3,0.8-2.7,1.3-4.2,1.5&#xA;&#x9;c-1.4,0-2.8-0.1-4.2-0.3c-2.3-0.3-4.6-0.6-6.8,0.5C186.5,174.8,187,175.4,187.4,175.2L187.4,175.2z"></path>
<path class="st0" d="M185.6,171.7c-1.3,1.5-2.2,3.3-3.4,4.8c-1,1.1-1.9,2.3-2.6,3.7c-1.3,3.3,1.6,5.8,3.7,8c2.4,2.5,4.7,5,6,8.3&#xA;&#x9;c0.8,2.2,1.4,4.4,1.8,6.7c0.6,2.5,1,5.1,1.2,7.6c0,0.5,0.8,0.5,0.8,0c-0.4-4.4-1.2-8.7-2.5-12.9c-0.9-2.9-2.5-5.6-4.5-7.9&#xA;&#x9;c-1.1-1.2-2.2-2.4-3.3-3.5c-1.3-1.4-3.1-3.2-2.6-5.3c0.4-1.6,1.7-3,2.7-4.2c1.2-1.5,2-3.3,3.3-4.7&#xA;&#x9;C186.5,172,185.9,171.4,185.6,171.7L185.6,171.7z"></path>
<path class="st0" d="M214.8,159.8c2.4-0.7,4.9-0.3,6.2,2c0.5,1.2,0.9,2.4,1,3.7c0.2,1.7,0.5,3.3,0.8,4.9c1.3,6.1,3.6,12,6.7,17.4&#xA;&#x9;c0.1,0.2,0.4,0.2,0.6,0.1c0.1-0.1,0.2-0.3,0.1-0.5c-3.7-6.3-6.1-13.3-7.3-20.5c-0.4-2.4-0.5-5.2-2.4-7c-1.7-1.5-3.9-1.5-6-1&#xA;&#x9;c-0.2,0.1-0.3,0.3-0.3,0.5C214.4,159.7,214.6,159.9,214.8,159.8L214.8,159.8z"></path>
<path class="st0" d="M190.2,213.6c1.3-2.7,4.9-3.4,7.6-3.9c3.1-0.5,6.2-0.7,9.3-0.6c5.7,0,12.4,0.8,17.6-2.2c3-1.8,4.9-4.9,5.4-8.3&#xA;&#x9;c0.1-0.5-0.7-0.7-0.8-0.2c-0.6,3.4-2.2,6.3-5.3,8c-2.8,1.5-6.2,1.8-9.3,1.9c-6,0.2-12-0.4-18,0.8c-2.6,0.5-6,1.5-7.3,4.1&#xA;&#x9;C189.3,213.6,190,214,190.2,213.6L190.2,213.6z"></path>
<path class="st0" d="M216.5,208.4c3-3.3,5.9-6.8,8.6-10.4c1.8-2.3,3.4-4.7,4.8-7.2c1.2-1.7,2-3.7,2.3-5.8c0.3-1.4-0.5-2.9-2-3.2&#xA;&#x9;c-0.1,0-0.3-0.1-0.4-0.1c-0.5-0.1-0.7,0.7-0.2,0.8c4.1,0.6,0.2,6.8-0.9,8.6c-2.8,4.4-5.9,8.6-9.4,12.6c-1.2,1.4-2.4,2.8-3.6,4.1&#xA;&#x9;C215.6,208.2,216.2,208.8,216.5,208.4L216.5,208.4z"></path>
<path class="st0" d="M224,172.9c5.4,1.8,11.7,3.6,15.7,7.9c5.7,6.1,1.7,14.6-0.5,21.2c-0.2,0.5,0.6,0.7,0.8,0.2&#xA;&#x9;c2.3-6.8,6.1-15,0.7-21.5c-3.9-4.8-10.8-6.7-16.5-8.6C223.7,172,223.5,172.7,224,172.9L224,172.9z"></path>
<path class="st0" d="M188.9,195.6c0.2,3.8-3,6.9-4.3,10.3c-1.3,3.5-1.6,7.4-0.9,11.1c0.9,3.6,2.3,7.1,4.2,10.4&#xA;&#x9;c1,1.8,1.7,3.7,2.3,5.6c0.4,2.2,0.6,4.4,0.4,6.6c-0.1,4.5-0.7,9.4,1.2,13.6c0.2,0.5,0.9,0.1,0.7-0.4c-1.9-4.1-1.3-8.8-1.1-13.2&#xA;&#x9;c0.3-3.6-0.4-7.2-1.8-10.5c-1.6-3.5-3.7-6.7-4.7-10.4c-1.1-4-1-8.2,0.3-12.1c1.3-3.7,4.6-6.9,4.5-10.9&#xA;&#x9;C189.7,195.1,188.9,195.1,188.9,195.6L188.9,195.6z"></path>
<path class="st0" d="M191.6,252.5c-0.5,1.6-0.3,3.3,0.7,4.7c1.2,2.2,2.7,4.2,4.4,6.1c1.6,1.9,3.4,3.8,5,5.7c1.5,2,2.8,4.2,3.8,6.5&#xA;&#x9;c2.4,4.8,4.4,9.9,8.1,13.9c4.2,4.5,9.9,6.3,15.9,6.8c4,0.3,7.9,0.3,11.9,0.2c3.1,0.2,6.2-0.5,9-2c2.6-1.7,5-3.7,7.2-5.9&#xA;&#x9;c2.7-2.4,5.3-5,7.6-7.8c4.4-5.5,7.8-11.7,10.3-18.4c1.3-3.3,2.2-6.7,2.8-10.1c0.4-3.1,0.3-6.3-0.1-9.4c-0.5-3.7-1.6-7.3-3.1-10.7&#xA;&#x9;c-1.7-3.5-4-6.7-6.7-9.4c-2.9-3.2-6-6.3-8.2-10.1c-1.5-2.6-3-5.5-6-6.5c-0.5-0.2-0.7,0.6-0.2,0.8c3,1,4.4,4.1,5.8,6.6&#xA;&#x9;c1.8,2.9,4,5.5,6.4,8c2.6,2.5,4.8,5.3,6.8,8.3c1.6,2.8,2.7,5.7,3.5,8.8c0.8,3.2,1.3,6.4,1.3,9.7c-0.1,3.2-0.6,6.3-1.5,9.3&#xA;&#x9;c-1.9,6.6-4.8,12.8-8.5,18.5c-3.8,5.6-8.5,10.2-13.5,14.7c-2.2,2.2-4.9,3.8-7.9,4.7c-1.7,0.3-3.5,0.5-5.2,0.4c-1.9,0-3.8,0-5.7,0&#xA;&#x9;c-6.4-0.1-13.3-0.5-18.5-4.5c-4.1-3.1-6.5-7.8-8.7-12.4c-1.3-2.7-2.6-5.4-4.1-8c-1.2-1.9-2.6-3.6-4.1-5.2c-2-2.1-3.8-4.3-5.5-6.7&#xA;&#x9;c-1.1-1.6-2.9-4.1-2-6.2C192.5,252.4,191.8,252,191.6,252.5L191.6,252.5z"></path>
<path class="st0" d="M242.8,188.3c4.4,3.1,6.6,8.3,8.2,13.4s2.5,10,4.5,14.7c0.2,0.5,0.9,0.3,0.8-0.2c-3.9-9.4-4-22.2-13-28.5&#xA;&#x9;C242.8,187.4,242.4,188,242.8,188.3z"></path>
<path class="st0" d="M183.7,179.6c0.1,4.7,4.1,8.3,6.7,12c3.4,4.8,5.1,10.6,6.7,16.2c0.1,0.5,0.9,0.3,0.8-0.2&#xA;&#x9;c-1.5-5.3-3.2-10.5-6-15.2c-2.4-4-7.2-7.7-7.3-12.7C184.4,179.1,183.6,179.1,183.7,179.6L183.7,179.6z"></path>
<path class="st0" d="M188.1,177c-0.1,2.6,0.7,5.1,2.2,7.2c1.5,2.4,3.3,4.6,4.6,7.1c2.9,5.1,6.2,10.4,7.1,16.3&#xA;&#x9;c0.1,0.5,0.8,0.3,0.8-0.2c-0.8-5.5-3.9-10.6-6.5-15.3c-1.3-2.4-2.7-4.6-4.3-6.8c-1.7-2.4-3.3-5.1-3-8.2&#xA;&#x9;C188.9,176.5,188.2,176.5,188.1,177L188.1,177z"></path>
<path class="st0" d="M217.5,164.8c1.4,3.7,2.2,7.7,3.3,11.5c1.2,4.4,2.4,9.1,4.8,12.9c0.6,1,1.6,2.3,2.9,2.1&#xA;&#x9;c0.5-0.1,0.3-0.8-0.2-0.8c-1.4,0.2-2.6-2.7-3.1-3.7c-1.2-2.6-2.1-5.3-2.9-8.1c-1.4-4.7-2.3-9.6-4-14.2&#xA;&#x9;C218.1,164.1,217.3,164.3,217.5,164.8L217.5,164.8z"></path>
<path class="st0" d="M213.6,167.6c1.5,2,2.5,4.4,3,6.9c0.7,2.5,1.2,5.1,1.9,7.6c1.4,5.1,3.4,10,6,14.6c0.1,0.2,0.4,0.2,0.5,0.1&#xA;&#x9;s0.2-0.4,0.1-0.5c-2.8-4.9-4.9-10.2-6.3-15.7c-1.2-4.4-1.7-9.8-4.8-13.5C213.9,166.7,213.3,167.2,213.6,167.6L213.6,167.6z"></path>
<path class="st0" d="M209.5,170.5c2,1.1,2.6,3.6,3,5.7s0.7,4.4,1.4,6.5c1.9,5.8,5,11.1,7.5,16.7c0.2,0.5,0.9,0.1,0.7-0.4&#xA;&#x9;c-2.6-6-6.3-11.8-7.9-18.2c-0.8-3.5-0.7-9-4.4-11C209.4,169.6,209,170.3,209.5,170.5L209.5,170.5z"></path>
<path class="st0" d="M192.6,176.1c-1.4,6.1,2.6,10.9,6.2,15.3c3.9,4.9,7,10.2,7.7,16.5c0.1,0.5,0.8,0.5,0.8,0&#xA;&#x9;c-0.7-5.5-2.9-10.6-6.3-14.9c-3.6-4.9-9.1-9.9-7.6-16.6C193.4,175.8,192.6,175.6,192.6,176.1L192.6,176.1z"></path>
<path class="st0" d="M197,177c-0.4,5.1,3.7,9.6,5.9,13.9c2.8,5.4,5.8,10.9,7.5,16.8c0.1,0.5,0.9,0.3,0.8-0.2&#xA;&#x9;c-1.6-5.5-4.3-10.6-6.9-15.7c-1.2-2.4-2.5-4.7-3.9-6.9c-1.4-2.3-2.8-5-2.6-7.9C197.8,176.5,197.1,176.5,197,177L197,177z"></path>
<path class="st0" d="M201.7,175.2c1.2,5.8,4.2,11.2,6.8,16.5c2.3,5,4.1,10.3,5.3,15.8c0.1,0.5,0.9,0.3,0.8-0.2&#xA;&#x9;c-1.1-5.2-2.8-10.2-4.9-15.1c-2.7-5.6-5.9-11.1-7.2-17.2C202.4,174.6,201.6,174.8,201.7,175.2z"></path>
<path class="st0" d="M205.3,173.9c2,1.4,3.1,3.9,4,6c0.9,2.2,1.7,4.7,2.5,7c1.1,2.8,2.2,5.6,3.1,8.4c1,3.3,1.8,6.8,2.3,10.2&#xA;&#x9;c0.1,0.5,0.8,0.3,0.8-0.2c-0.5-3.6-1.3-7.2-2.4-10.7c-1-3-2.2-5.9-3.3-8.9c-0.8-2.4-1.6-4.9-2.7-7.2c-0.8-2.1-2.1-4-3.9-5.4&#xA;&#x9;C205.3,172.9,204.9,173.6,205.3,173.9L205.3,173.9z"></path>
<path class="st0" d="M76.5,171.9c-1.1,4.2,0.2,9,0.9,13.2c1,5.3,1.6,10.6,0.4,15.9c-0.1,0.5,0.6,0.7,0.8,0.2&#xA;&#x9;c0.9-4.8,0.9-9.7-0.1-14.5c-0.4-2.6-1-5.2-1.3-7.9c-0.4-2.2-0.3-4.5,0.1-6.7C77.4,171.6,76.7,171.4,76.5,171.9L76.5,171.9z"></path>
<path class="st0" d="M81.3,173.4c-2.2,4.3-0.8,9.6-0.2,14c1.1,7,1.6,14.1,1.7,21.2c0,0.2,0.2,0.4,0.5,0.3c0.2,0,0.3-0.2,0.3-0.3&#xA;&#x9;c0-6.7-0.5-13.3-1.5-19.9c-0.7-4.6-2.3-10.5-0.1-14.9C82.2,173.4,81.5,173,81.3,173.4L81.3,173.4z"></path>
<path class="st0" d="M85.3,171.2c-2,2-2.2,5.3-2.1,7.9c0.1,3.3,0.6,6.6,1.2,9.9c1,4.9,1.8,9.9,2.3,14.9c0.3,3.7,2.1,8.1,0.6,11.7&#xA;&#x9;c-0.2,0.5,0.6,0.7,0.8,0.2c1.4-3.3,0-7.3-0.4-10.7c-0.3-2.4-0.4-4.7-0.8-7c-0.4-2.6-0.9-5.2-1.4-7.8c-0.6-3.1-1.1-6.2-1.4-9.4&#xA;&#x9;c-0.2-2.9-0.4-6.9,1.8-9.1C86.2,171.4,85.7,170.9,85.3,171.2L85.3,171.2z"></path>
<path class="st0" d="M108,177.2c-0.1,8.4-0.7,16.9-1.9,25.2c-0.6,3.9-0.9,7.9-0.9,11.9c0.1,2.8,0.8,6.5-0.8,9.1&#xA;&#x9;c-0.3,0.4,0.4,0.8,0.7,0.4c1.4-2.3,1.1-5.6,0.9-8.2c-0.1-4.1,0.1-8.1,0.7-12.1c1.3-8.7,2-17.5,2.1-26.3c0-0.2-0.2-0.4-0.4-0.4&#xA;&#x9;S108,177,108,177.2L108,177.2L108,177.2z"></path>
<path class="st0" d="M101.2,176.7c2.3,3.1,2.7,7.3,2.8,11c0.1,3.8-0.1,7.6-0.6,11.4c-0.5,5.3-1.7,10.6-1.8,16c0,1.8-0.1,3.6-0.3,5.3&#xA;&#x9;c0,1.6-0.3,3.2-1,4.7c-0.3,0.4,0.4,0.8,0.7,0.4c1.2-2,1.1-5.1,1.3-7.4c0.2-3.9,0.4-7.8,0.9-11.7c0.9-6.9,1.9-14,1.4-20.9&#xA;&#x9;c-0.3-3.1-0.8-6.5-2.8-9.1C101.6,175.9,100.9,176.3,101.2,176.7L101.2,176.7z"></path>
<path class="st0" d="M97.2,176.6c2.8,6.9,1.7,14.9,1.4,22.2c-0.4,8.9-1.3,17.7-1.6,26.6h0.8v-1.1c0-0.2-0.2-0.4-0.4-0.4&#xA;&#x9;s-0.4,0.2-0.4,0.4l0,0v1.1c0,0.2,0.2,0.4,0.4,0.4s0.4-0.2,0.4-0.4c0.3-9,1.2-18,1.7-27c0.4-7.2,1.4-15.2-1.4-22.1&#xA;&#x9;C97.8,175.9,97,176.1,97.2,176.6z"></path>
<path class="st0" d="M88.6,172.2c-2.2,8-0.1,16.1,1.7,23.9c1.9,8.3,2.2,16.9,0.9,25.3c-0.1,0.5,0.7,0.7,0.8,0.2&#xA;&#x9;c1.2-7.9,1.1-15.9-0.5-23.8c-1.7-8.4-4.5-16.9-2.2-25.5c0.1-0.2-0.1-0.4-0.3-0.5C88.8,171.8,88.6,171.9,88.6,172.2L88.6,172.2&#xA;&#x9;L88.6,172.2z"></path>
<path class="st0" d="M93.9,174.2c-1.4,3.1-1.4,6.7-1.3,10.1c0.1,3.7,0.6,7.3,1,10.9c0.5,5.1,1.5,10.2,1.6,15.3&#xA;&#x9;c0,4.5-1.3,8.9-1.1,13.4c0,0.5,0.8,0.5,0.8,0c-0.3-4.3,1-8.5,1.1-12.8c0-5-0.9-10-1.5-15c-0.4-3.5-0.8-7.1-1-10.6&#xA;&#x9;c-0.2-3.6-0.4-7.6,1.1-10.9C94.7,174.1,94,173.6,93.9,174.2L93.9,174.2z"></path>
<path class="st0" d="M129.1,182.3c4.9,2.2,10.2,3.8,15.6,3.4c5.5-0.5,10.5-3.3,13.7-7.7c0.3-0.4-0.2-1-0.6-0.6&#xA;&#x9;c-3.2,4.4-8.1,7.1-13.5,7.5c-5.1,0.3-10.2-1.3-14.8-3.4C129,181.4,128.6,182.1,129.1,182.3L129.1,182.3z"></path>
<path class="st0" d="M125.3,161.4c1.5,5.1,1.3,10.6,1.8,15.9c0,0.5,0.8,0.5,0.8,0c-0.6-5.3-0.4-10.9-1.9-16.1&#xA;&#x9;c-0.1-0.2-0.3-0.3-0.5-0.2C125.3,161,125.2,161.2,125.3,161.4z"></path>
<path class="st0" d="M129.5,163.5c0.4,2.2,0.6,4.4,0.5,6.6c0,2.1,0.3,4.2,0.3,6.3c0,1.2,0,2.4,0,3.7c0,0.4-0.2,1.8,0.4,2&#xA;&#x9;c0.1,0,0.3,0,0.4-0.1c0.1-0.2,0.2-0.4,0.2-0.7c0.1-0.5-0.7-0.7-0.8-0.2c0,0.1-0.1,0.4,0,0.3l0.4-0.1c0.3,0.1,0.2,0.3,0.2-0.1&#xA;&#x9;c0-0.2,0-0.4,0-0.6c0-0.5,0-1,0-1.5c0-1.4,0-2.9,0-4.4c0-1.9-0.2-3.8-0.2-5.7c0-2-0.2-3.9-0.5-5.8&#xA;&#x9;C130.2,162.7,129.4,162.9,129.5,163.5L129.5,163.5z"></path>
<path class="st0" d="M132.6,165.7c0,5.7,0.8,11.3,0.8,17c0,0.2,0.2,0.4,0.4,0.4c0.2,0,0.4-0.2,0.4-0.4c0-5.7-0.8-11.3-0.8-17&#xA;&#x9;c0-0.2-0.2-0.4-0.4-0.4C132.8,165.3,132.6,165.5,132.6,165.7z"></path>
<path class="st0" d="M135.5,166.8c0.5,5.6,1.3,11.1,1.3,16.8c0,0.2,0.2,0.4,0.4,0.4c0.2,0,0.4-0.2,0.4-0.4c0-5.6-0.8-11.2-1.3-16.8&#xA;&#x9;C136.2,166.3,135.4,166.3,135.5,166.8z"></path>
<path class="st0" d="M139.1,167.4c1.8,5.4,2.1,11.3,2.1,17c0,0.2,0.2,0.4,0.4,0.4c0.2,0,0.4-0.2,0.4-0.4v-0.6c0-0.2-0.2-0.4-0.4-0.4&#xA;&#x9;c-0.2,0-0.4,0.2-0.4,0.4l0,0v0.6c0,0.2,0.2,0.4,0.4,0.4c0.2,0,0.4-0.2,0.4-0.4c0-5.8-0.3-11.6-2.1-17.2&#xA;&#x9;C139.7,166.7,139,166.9,139.1,167.4L139.1,167.4z"></path>
<path class="st0" d="M142.5,167c0,5.8,1.7,11.3,2.1,17c0,0.5,0.8,0.5,0.8,0c-0.4-5.7-2.1-11.3-2.1-17c0-0.2-0.2-0.4-0.4-0.4&#xA;&#x9;C142.7,166.6,142.5,166.8,142.5,167L142.5,167z"></path>
<path class="st0" d="M145.7,166.2c0,3,0.3,5.9,1,8.8c0.5,2.6,1.2,5.3,1.1,7.9c0,0.5,0.8,0.5,0.8,0c0-2.6-0.4-5.1-1-7.6&#xA;&#x9;c-0.7-3-1.1-6-1.1-9.1C146.5,165.8,145.7,165.8,145.7,166.2L145.7,166.2z"></path>
<path class="st0" d="M149.1,165c1.5,5.6,3.1,11.3,3.1,17.2c0,0.2,0.2,0.4,0.5,0.3c0.2,0,0.3-0.2,0.3-0.3c0-6-1.6-11.7-3.2-17.4&#xA;&#x9;c-0.1-0.2-0.3-0.3-0.5-0.3C149.2,164.6,149,164.8,149.1,165L149.1,165z"></path>
<path class="st0" d="M151.7,163.2c2,5.4,2.5,11.4,2.9,17.2c0,0.5,0.8,0.5,0.8,0c-0.3-5.8-0.9-11.9-2.9-17.4&#xA;&#x9;C152.3,162.5,151.6,162.7,151.7,163.2L151.7,163.2z"></path>
<path class="st0" d="M220.2,294.3c0.5,10.4,5.1,20,7.5,30c0.1,0.5,0.9,0.3,0.8-0.2c-2.4-9.9-7-19.4-7.5-29.8&#xA;&#x9;C221,293.8,220.2,293.8,220.2,294.3L220.2,294.3z"></path>
<path class="st0" d="M189,15c5,1.9,8.1,7.6,10.4,12.1c2.5,5.2,4.6,10.6,6.2,16.1c4.5,14,0.5,29.4,5.2,43.3c1.4,4,3.6,7.6,5.4,11.4&#xA;&#x9;c2.2,4.2,3.8,8.6,4.9,13.2c0.1,0.5,0.9,0.3,0.8-0.2c-0.9-3.9-2.2-7.7-3.9-11.3c-1.7-3.7-3.8-7.3-5.5-11.1c-3.1-7.2-3.3-15.2-3.5-23&#xA;&#x9;c-0.2-7.4-0.2-15-2.5-22.1c-1.7-5.4-3.7-10.8-6.1-15.9c-2.4-5-5.7-11.2-11.3-13.3C188.8,14.1,188.6,14.9,189,15L189,15z"></path>
<path class="st0" d="M152.9,150.9c6.4,0.6,11.3,5.6,16,9.5c4.7,4,9.9,7.4,16.2,7c0.5,0,0.5-0.8,0-0.8c-13.5,0.9-19.4-15.2-32.2-16.5&#xA;&#x9;C152.4,150.1,152.4,150.9,152.9,150.9L152.9,150.9z"></path>
<path class="st0" d="M109.3,127.6c1.4-0.7,2.6-1.7,3.4-3c0.9-1.4,1.9-2.7,3.1-3.9c0.4-0.3-0.2-0.9-0.6-0.6c-1.1,1.1-2.1,2.4-3,3.7&#xA;&#x9;c-0.7,1.3-1.8,2.3-3.1,3C108.6,127,108.8,127.8,109.3,127.6z"></path>
<path class="st0" d="M174.1,112.9c-4.3,0.2-8.5,1.1-12.5,2.6c-2.1,0.9-4.3,1.3-6.5,1.4c-2-0.2-3.9-0.3-5.9-0.3c-0.5,0-0.5,0.8,0,0.8&#xA;&#x9;c1.9,0,3.8,0.1,5.7,0.3c2.1,0,4.1-0.4,6-1.1c4.2-1.4,8.7-2.8,13.1-2.8c0.2,0,0.4-0.2,0.3-0.5C174.4,113.1,174.2,113,174.1,112.9&#xA;&#x9;L174.1,112.9z"></path>
<path class="st0" d="M149,116.3c-1.6,0-3.3-0.2-4.8-0.6c-0.8-0.1-1.6-0.2-2.4-0.2c-0.7,0.1-1.4,0.2-2.1,0.6&#xA;&#x9;c-1.1,0.4-1.9,1.4-2.2,2.6c-0.1,1.1,0.3,2.3,1,3.1c0.9,1.1,2.2,2,3.6,2.4c0.2,0.1,0.4-0.1,0.5-0.3c0.1-0.2-0.1-0.4-0.3-0.5&#xA;&#x9;c-1.9-0.5-4.2-2.2-4.1-4.4c0.2-1,0.9-1.9,1.9-2.2c1.3-0.5,2.7-0.6,4.1-0.3c1.6,0.4,3.2,0.6,4.9,0.5&#xA;&#x9;C149.5,117.2,149.5,116.4,149,116.3L149,116.3z"></path>
<path class="st0" d="M141.8,123.7c5.8,2.1,12.3,2.4,18.4,2.4c0.2,0,0.4-0.2,0.4-0.4s-0.2-0.4-0.4-0.4c-6,0-12.5-0.3-18.2-2.3&#xA;&#x9;C141.5,122.7,141.3,123.5,141.8,123.7z"></path>
<path class="st0" d="M159.9,126c1.8-1.1,3.9-1,5.9-1.3c1.6-0.3,3.1-0.8,4.6-1.2c1.5-0.4,3.4-1,5-1.4c1.3-0.4,2.6-0.6,4-0.5&#xA;&#x9;c0.5,0.1,0.7-0.7,0.2-0.8c-1.3-0.1-2.6,0-3.8,0.4c-1.8,0.4-3.6,0.9-5.4,1.4c-1.6,0.5-3.2,0.9-4.9,1.3c-2.1,0.4-4.2,0.3-6.1,1.4&#xA;&#x9;C159.1,125.6,159.5,126.3,159.9,126z"></path>
<path class="st0" d="M140.6,123.4c-2.1,0-4.2,0.3-6.2,0.8c-1.8,0.5-4.3,1.3-5,3.2c-0.3,1.1-0.1,2.3,0.6,3.1c0.3,0.4,1,0,0.7-0.4&#xA;&#x9;c-0.6-0.7-0.8-1.6-0.6-2.4c0.3-0.7,0.9-1.3,1.6-1.6c1.9-0.9,3.9-1.5,6-1.7c0.9-0.1,1.9-0.2,2.8-0.2c0.2,0,0.4-0.2,0.4-0.4&#xA;&#x9;S140.8,123.4,140.6,123.4z"></path>
<path class="st0" d="M130.3,131c7.5,2.4,15.5,1.6,23.2,2.6c0.5,0.1,0.5-0.7,0-0.8c-7.6-1-15.6-0.2-22.9-2.6&#xA;&#x9;C130,130.1,129.8,130.9,130.3,131z"></path>
<path class="st0" d="M152.9,133.9c3.4,0.1,6.7,0,10.1-0.2c3.1-0.3,6.2-0.9,9.3-0.6c0.5,0.1,0.5-0.7,0-0.8c-3.1-0.4-6.2,0.2-9.3,0.6&#xA;&#x9;c-3.4,0.3-6.7,0.3-10.1,0.2c-0.2,0-0.4,0.2-0.4,0.4C152.5,133.7,152.7,133.9,152.9,133.9z"></path>
<path class="st0" d="M150.7,133.6c2.7,1.1,5.1,2.7,7.7,3.9c2.6,1.3,5.4,2.1,8.4,2.2c0.2,0,0.4-0.2,0.3-0.5c0-0.2-0.2-0.3-0.3-0.3&#xA;&#x9;c-3-0.1-6-0.9-8.6-2.3c-2.4-1.2-4.7-2.7-7.3-3.7C150.4,132.7,150.2,133.5,150.7,133.6L150.7,133.6z"></path>
<path class="st0" d="M162,139.2c1.4,2,3,3.9,4.7,5.7c1.4,1.6,3,3.1,4.7,4.4c2.8,2.1,6.1,2.9,9.4,3.7c0.5,0.1,0.7-0.6,0.2-0.8&#xA;&#x9;c-3.2-0.8-6.4-1.6-9.1-3.5c-1.7-1.2-3.2-2.7-4.6-4.2c-1.7-1.8-3.3-3.7-4.7-5.7C162.4,138.4,161.7,138.8,162,139.2L162,139.2z"></path>
<path class="st0" d="M156.3,142.2c1.3-1.3,2.6-2.6,3.9-3.9c0.2-0.2,0.2-0.4,0-0.6c-0.2-0.2-0.4-0.2-0.6,0c-1.3,1.3-2.6,2.6-3.9,3.9&#xA;&#x9;C155.4,142,155.9,142.5,156.3,142.2z"></path>
<path class="st0" d="M131.1,101.4c0.9,5.9,5.7,10.6,10.9,13.1c0.5,0.2,0.8-0.5,0.4-0.7c-5-2.4-9.7-6.9-10.6-12.6&#xA;&#x9;C131.7,100.7,131,100.9,131.1,101.4L131.1,101.4z"></path>
<path class="st0" d="M127.6,96c-0.5,8,3.8,16.9,10.7,21.3c0.4,0.3,0.8-0.4,0.4-0.7c-6.6-4.2-10.7-12.8-10.3-20.6&#xA;&#x9;C128.4,95.5,127.6,95.5,127.6,96z"></path>
<path class="st0" d="M163.1,115.3c6.7-0.8,8.5-9.3,9.8-14.7c0.3-1.4,0.6-2.8,1.1-4.2c0.2-0.5-0.6-0.7-0.8-0.2&#xA;&#x9;c-1.2,3.3-1.6,6.9-2.7,10.2c-1.1,3.3-3.3,7.6-7.4,8.1C162.6,114.5,162.6,115.4,163.1,115.3L163.1,115.3z"></path>
<path class="st0" d="M166.2,78.7c0.6,0.9,1.1,1.9,1.6,2.9c0.1,0.2,0.3,0.3,0.5,0.2c0,0,0,0,0,0c0.2-0.1,0.2-0.3,0.1-0.5&#xA;&#x9;c-0.5-1-1-2-1.6-2.9c-0.1-0.2-0.4-0.2-0.5-0.1C166.1,78.3,166.1,78.5,166.2,78.7L166.2,78.7z"></path>
<path class="st0" d="M143.2,87.9c-4.7,4-3.6,13.2,1.1,16.8c0.4,0.3,1-0.2,0.6-0.6c-4.4-3.4-5.4-12-1.1-15.7&#xA;&#x9;C144.1,88.1,143.6,87.6,143.2,87.9z"></path>
<path class="st0" d="M126.2,120.5h10.2c0.2,0,0.4-0.2,0.4-0.4s-0.2-0.4-0.4-0.4h-10.2c-0.2,0-0.4,0.2-0.4,0.4&#xA;&#x9;S125.9,120.5,126.2,120.5L126.2,120.5z"></path>
</svg>